<mxfile modified="2022-12-01T23:02:44.007Z" host="app.diagrams.net" agent="5.0 (Macintosh; Intel Mac OS X 10_15_7) AppleWebKit/605.1.15 (KHTML, like Gecko) Version/16.1 Safari/605.1.15" etag="X_DTwoI_g194DTf0oVFx" version="20.5.3" type="github" pages="7">
  <diagram id="VjomX15xuYtD5MLgN6QB" name="Agenda">
    <mxGraphModel dx="1426" dy="857" grid="0" gridSize="10" guides="1" tooltips="1" connect="1" arrows="1" fold="1" page="1" pageScale="1" pageWidth="850" pageHeight="1100" math="0" shadow="0">
      <root>
        <mxCell id="0" />
        <mxCell id="1" parent="0" />
        <mxCell id="RGwa3ZNCP71L5T_SxQl2-1" value="Agenda" style="text;html=1;strokeColor=none;fillColor=none;align=center;verticalAlign=middle;whiteSpace=wrap;rounded=0;shadow=0;fontSize=18;fontStyle=1" parent="1" vertex="1">
          <mxGeometry x="126" y="128" width="60" height="30" as="geometry" />
        </mxCell>
        <mxCell id="RGwa3ZNCP71L5T_SxQl2-2" value="&lt;u&gt;Meeting Kick-off&lt;/u&gt;" style="text;html=1;strokeColor=none;fillColor=none;align=left;verticalAlign=middle;whiteSpace=wrap;rounded=0;shadow=0;fontSize=18;" parent="1" vertex="1">
          <mxGeometry x="120" y="220" width="480" height="30" as="geometry" />
        </mxCell>
        <mxCell id="RGwa3ZNCP71L5T_SxQl2-6" value="&lt;u&gt;Requirements &amp;amp; High-Level Architecture&lt;/u&gt;" style="text;html=1;strokeColor=none;fillColor=none;align=left;verticalAlign=middle;whiteSpace=wrap;rounded=0;shadow=0;fontSize=18;" parent="1" vertex="1">
          <mxGeometry x="120" y="280" width="480" height="30" as="geometry" />
        </mxCell>
        <mxCell id="RGwa3ZNCP71L5T_SxQl2-7" value="&lt;u&gt;Solutions Architecture&lt;/u&gt;" style="text;html=1;strokeColor=none;fillColor=none;align=left;verticalAlign=middle;whiteSpace=wrap;rounded=0;shadow=0;fontSize=18;" parent="1" vertex="1">
          <mxGeometry x="120" y="460" width="480" height="30" as="geometry" />
        </mxCell>
        <mxCell id="RGwa3ZNCP71L5T_SxQl2-8" value="&lt;u&gt;Summary &amp;amp; Next Steps&lt;/u&gt;" style="text;html=1;strokeColor=none;fillColor=none;align=left;verticalAlign=middle;whiteSpace=wrap;rounded=0;shadow=0;fontSize=18;" parent="1" vertex="1">
          <mxGeometry x="120" y="597" width="480" height="30" as="geometry" />
        </mxCell>
        <mxCell id="RGwa3ZNCP71L5T_SxQl2-9" value="Conceptual architecture" style="text;html=1;strokeColor=none;fillColor=none;align=left;verticalAlign=middle;whiteSpace=wrap;rounded=0;shadow=0;fontSize=18;" parent="1" vertex="1">
          <mxGeometry x="160" y="500" width="480" height="30" as="geometry" />
        </mxCell>
        <mxCell id="RGwa3ZNCP71L5T_SxQl2-10" value="Solutions architecture (outline)" style="text;html=1;strokeColor=none;fillColor=none;align=left;verticalAlign=middle;whiteSpace=wrap;rounded=0;shadow=0;fontSize=18;" parent="1" vertex="1">
          <mxGeometry x="160" y="540" width="480" height="30" as="geometry" />
        </mxCell>
        <mxCell id="RGwa3ZNCP71L5T_SxQl2-11" value="High-level requirements" style="text;html=1;strokeColor=none;fillColor=none;align=left;verticalAlign=middle;whiteSpace=wrap;rounded=0;shadow=0;fontSize=18;" parent="1" vertex="1">
          <mxGeometry x="160" y="320" width="480" height="30" as="geometry" />
        </mxCell>
        <mxCell id="RGwa3ZNCP71L5T_SxQl2-12" value="&lt;span style=&quot;caret-color: rgb(0, 0, 0); color: rgb(0, 0, 0); font-family: Helvetica; font-size: 18px; font-style: normal; font-variant-caps: normal; font-weight: 400; letter-spacing: normal; text-align: left; text-indent: 0px; text-transform: none; word-spacing: 0px; -webkit-text-stroke-width: 0px; background-color: rgb(248, 249, 250); text-decoration: none; float: none; display: inline !important;&quot;&gt;Future state&lt;/span&gt;" style="text;html=1;strokeColor=none;fillColor=none;align=left;verticalAlign=middle;whiteSpace=wrap;rounded=0;shadow=0;fontSize=18;" parent="1" vertex="1">
          <mxGeometry x="160" y="400" width="480" height="30" as="geometry" />
        </mxCell>
        <mxCell id="dw6q_YZNpKW3-IFjIILA-1" value="&lt;font style=&quot;font-size: 16px;&quot;&gt;2022-12-02&lt;/font&gt;" style="text;html=1;strokeColor=none;fillColor=none;align=right;verticalAlign=middle;whiteSpace=wrap;rounded=0;dashed=1;labelBackgroundColor=#FFFFFF;fontSize=24;fontColor=#000000;" parent="1" vertex="1">
          <mxGeometry x="660" y="53" width="143" height="30" as="geometry" />
        </mxCell>
        <mxCell id="dw6q_YZNpKW3-IFjIILA-2" value="&lt;font style=&quot;font-size: 32px;&quot;&gt;AnyCompany/AWS&lt;/font&gt;" style="text;html=1;strokeColor=none;fillColor=none;align=left;verticalAlign=middle;whiteSpace=wrap;rounded=0;shadow=0;fontSize=18;fontStyle=1" parent="1" vertex="1">
          <mxGeometry x="96" y="54" width="329" height="29" as="geometry" />
        </mxCell>
        <mxCell id="uuZfknn4TFi3_fV7vghA-1" value="&lt;span style=&quot;caret-color: rgb(0, 0, 0); color: rgb(0, 0, 0); font-family: Helvetica; font-size: 18px; font-style: normal; font-variant-caps: normal; font-weight: 400; letter-spacing: normal; text-align: left; text-indent: 0px; text-transform: none; word-spacing: 0px; -webkit-text-stroke-width: 0px; background-color: rgb(248, 249, 250); text-decoration: none; float: none; display: inline !important;&quot;&gt;Current state&lt;/span&gt;" style="text;html=1;strokeColor=none;fillColor=none;align=left;verticalAlign=middle;whiteSpace=wrap;rounded=0;shadow=0;fontSize=18;" parent="1" vertex="1">
          <mxGeometry x="160" y="360" width="480" height="30" as="geometry" />
        </mxCell>
      </root>
    </mxGraphModel>
  </diagram>
  <diagram name="H-L Reqs." id="h9jbHCem-ycJ2uZCTOwV">
    <mxGraphModel dx="1426" dy="857" grid="0" gridSize="10" guides="1" tooltips="1" connect="1" arrows="1" fold="1" page="1" pageScale="1" pageWidth="850" pageHeight="1100" math="0" shadow="0">
      <root>
        <mxCell id="9m_CjEebkvtOnrXl-hu_-0" />
        <mxCell id="9m_CjEebkvtOnrXl-hu_-1" parent="9m_CjEebkvtOnrXl-hu_-0" />
        <mxCell id="AXn1gOnWAieejqgXZwlD-0" value="&lt;h1&gt;High-Level Requirements&lt;/h1&gt;&lt;p&gt;&lt;b&gt;&lt;br&gt;&lt;/b&gt;&lt;/p&gt;&lt;p&gt;Enable third party business analysts to generate and validate reports on AnyCompany data without risk of leakage of PII and customer sensitive data&lt;br&gt;&lt;/p&gt;&lt;p&gt;&lt;/p&gt;&lt;ul&gt;&lt;li&gt;Third party BAs should not have access to PII and customer sensitive data or to analytics datastores that have PII or customer sensitive data&lt;/li&gt;&lt;/ul&gt;&lt;ul&gt;&lt;li&gt;The data scrubbing process requires AI/ML. The medium-term solution needs to support R&amp;amp;D of AI/ML solutions by AnyCompany.&lt;br&gt;&lt;/li&gt;&lt;/ul&gt;&lt;p&gt;&lt;/p&gt;&lt;p&gt;Reduce on-going risk of leakage of PII and customer sensitive data&lt;/p&gt;&lt;p&gt;&lt;/p&gt;&lt;ul&gt;&lt;li&gt;Transition to having in-house team use scrubbed data, with an option to revert scrubbed data to the original text for debugging and specific analytics&lt;br&gt;&lt;/li&gt;&lt;/ul&gt;&lt;p&gt;&lt;/p&gt;" style="text;html=1;strokeColor=none;fillColor=none;spacing=5;spacingTop=-20;whiteSpace=wrap;overflow=hidden;rounded=0;shadow=0;labelBorderColor=none;fontSize=18;fontColor=#000000;" parent="9m_CjEebkvtOnrXl-hu_-1" vertex="1">
          <mxGeometry x="70" y="90" width="680" height="530" as="geometry" />
        </mxCell>
      </root>
    </mxGraphModel>
  </diagram>
  <diagram id="25lp0CtglmJZi7T5T5F2" name="Current State">
    <mxGraphModel dx="1426" dy="857" grid="0" gridSize="10" guides="1" tooltips="1" connect="1" arrows="1" fold="1" page="1" pageScale="1" pageWidth="850" pageHeight="1100" math="0" shadow="0">
      <root>
        <mxCell id="0" />
        <mxCell id="1" parent="0" />
        <mxCell id="h1IbnTh46kwvZ-l_5gWV-3" value="Operational Systems" style="swimlane;whiteSpace=wrap;html=1;shadow=0;strokeColor=default;fontSize=18;startSize=40;dashed=1;" parent="1" vertex="1">
          <mxGeometry x="59" y="80" width="180" height="540" as="geometry" />
        </mxCell>
        <mxCell id="gpUl1PO_aZrQJFSE_oQn-3" value="Interactive&lt;br&gt;Call Center" style="rounded=1;whiteSpace=wrap;html=1;shadow=0;strokeColor=default;fontSize=18;" parent="h1IbnTh46kwvZ-l_5gWV-3" vertex="1">
          <mxGeometry x="21" y="80" width="140" height="60" as="geometry" />
        </mxCell>
        <mxCell id="gpUl1PO_aZrQJFSE_oQn-4" value="Email &lt;br&gt;Support" style="rounded=1;whiteSpace=wrap;html=1;shadow=0;strokeColor=default;fontSize=18;" parent="h1IbnTh46kwvZ-l_5gWV-3" vertex="1">
          <mxGeometry x="21" y="176" width="140" height="60" as="geometry" />
        </mxCell>
        <mxCell id="gpUl1PO_aZrQJFSE_oQn-6" value="..." style="rounded=1;whiteSpace=wrap;html=1;shadow=0;strokeColor=default;fontSize=18;" parent="h1IbnTh46kwvZ-l_5gWV-3" vertex="1">
          <mxGeometry x="21" y="271" width="140" height="60" as="geometry" />
        </mxCell>
        <mxCell id="h1IbnTh46kwvZ-l_5gWV-4" value="Analytics Data Stores" style="swimlane;whiteSpace=wrap;html=1;shadow=0;strokeColor=default;fontSize=18;startSize=40;dashed=1;" parent="1" vertex="1">
          <mxGeometry x="642" y="80" width="180" height="540" as="geometry" />
        </mxCell>
        <mxCell id="gpUl1PO_aZrQJFSE_oQn-12" value="" style="shape=cylinder3;whiteSpace=wrap;html=1;boundedLbl=1;backgroundOutline=1;size=15;shadow=0;strokeColor=default;fontSize=18;fontColor=#9933FF;" parent="h1IbnTh46kwvZ-l_5gWV-4" vertex="1">
          <mxGeometry x="20" y="176" width="140" height="140" as="geometry" />
        </mxCell>
        <mxCell id="zf8lR28jDNdzLFkF-36o-1" value="&lt;font color=&quot;#9933ff&quot;&gt;PII/Sensitive&lt;br&gt;&lt;/font&gt;&amp;amp; Ops Data" style="text;html=1;strokeColor=none;fillColor=none;align=center;verticalAlign=middle;whiteSpace=wrap;rounded=0;shadow=0;labelBorderColor=none;fontSize=18;fontColor=#000000;" parent="h1IbnTh46kwvZ-l_5gWV-4" vertex="1">
          <mxGeometry x="20" y="236" width="140" height="30" as="geometry" />
        </mxCell>
        <mxCell id="h1IbnTh46kwvZ-l_5gWV-5" value="In-House &lt;br&gt;BA" style="shape=umlActor;verticalLabelPosition=bottom;verticalAlign=top;html=1;outlineConnect=0;shadow=0;fontSize=18;" parent="1" vertex="1">
          <mxGeometry x="1142" y="276" width="30" height="60" as="geometry" />
        </mxCell>
        <mxCell id="gpUl1PO_aZrQJFSE_oQn-7" value="Data Sets" style="swimlane;whiteSpace=wrap;html=1;shadow=0;strokeColor=default;fontSize=18;startSize=40;dashed=1;" parent="1" vertex="1">
          <mxGeometry x="300" y="80" width="180" height="540" as="geometry" />
        </mxCell>
        <mxCell id="gpUl1PO_aZrQJFSE_oQn-8" value="&lt;font color=&quot;#9933ff&quot;&gt;Call Logs&lt;/font&gt; &amp;amp; Operations Data" style="rounded=1;whiteSpace=wrap;html=1;shadow=0;strokeColor=default;fontSize=18;" parent="gpUl1PO_aZrQJFSE_oQn-7" vertex="1">
          <mxGeometry x="18" y="80" width="140" height="60" as="geometry" />
        </mxCell>
        <mxCell id="gpUl1PO_aZrQJFSE_oQn-9" value="&lt;font color=&quot;#9933ff&quot;&gt;Emails&lt;/font&gt; &amp;amp; Operations Data" style="rounded=1;whiteSpace=wrap;html=1;shadow=0;strokeColor=default;fontSize=18;" parent="gpUl1PO_aZrQJFSE_oQn-7" vertex="1">
          <mxGeometry x="18" y="176" width="140" height="60" as="geometry" />
        </mxCell>
        <mxCell id="fP8nqgsZxJsMwtP1_yZa-1" value="..." style="rounded=1;whiteSpace=wrap;html=1;shadow=0;strokeColor=default;fontSize=18;" parent="gpUl1PO_aZrQJFSE_oQn-7" vertex="1">
          <mxGeometry x="18" y="272" width="140" height="60" as="geometry" />
        </mxCell>
        <mxCell id="gpUl1PO_aZrQJFSE_oQn-16" value="Analytics &lt;br&gt;Processes" style="swimlane;whiteSpace=wrap;html=1;shadow=0;strokeColor=default;fontSize=18;startSize=40;dashed=1;" parent="1" vertex="1">
          <mxGeometry x="882" y="80" width="180" height="540" as="geometry" />
        </mxCell>
        <mxCell id="gpUl1PO_aZrQJFSE_oQn-19" value="Business Analytics" style="rounded=1;whiteSpace=wrap;html=1;shadow=0;labelBorderColor=none;strokeColor=default;fontSize=18;fontColor=#000000;" parent="gpUl1PO_aZrQJFSE_oQn-16" vertex="1">
          <mxGeometry x="21" y="193" width="138" height="60" as="geometry" />
        </mxCell>
        <mxCell id="fP8nqgsZxJsMwtP1_yZa-2" value="..." style="rounded=1;whiteSpace=wrap;html=1;shadow=0;strokeColor=default;fontSize=18;" parent="gpUl1PO_aZrQJFSE_oQn-16" vertex="1">
          <mxGeometry x="23" y="268" width="140" height="60" as="geometry" />
        </mxCell>
        <mxCell id="gpUl1PO_aZrQJFSE_oQn-26" value="Analytics&lt;br&gt;Warehouse" style="text;html=1;strokeColor=none;fillColor=none;align=center;verticalAlign=middle;whiteSpace=wrap;rounded=0;shadow=0;labelBorderColor=none;fontSize=18;fontColor=#000000;" parent="1" vertex="1">
          <mxGeometry x="701" y="406" width="60" height="30" as="geometry" />
        </mxCell>
        <mxCell id="4Oo0tviDNwxsVa1uIlnn-1" value="&lt;u style=&quot;caret-color: rgb(0, 0, 0); color: rgb(0, 0, 0); font-family: Helvetica; font-size: 16px; font-style: normal; font-variant-caps: normal; font-weight: 400; letter-spacing: normal; text-align: center; text-indent: 0px; text-transform: none; word-spacing: 0px; -webkit-text-stroke-width: 0px;&quot;&gt;&lt;span style=&quot;font-size: x-large;&quot;&gt;High-Level&amp;nbsp;&lt;/span&gt;&lt;font size=&quot;5&quot;&gt;Current State&lt;/font&gt;&lt;/u&gt;" style="text;whiteSpace=wrap;html=1;" parent="1" vertex="1">
          <mxGeometry x="415" y="8" width="290" height="50" as="geometry" />
        </mxCell>
        <mxCell id="wXWGEpKx-K4ZdakGSXoy-1" value="Extract Transform&lt;br&gt;&amp;amp; Load&lt;br&gt;&lt;br&gt;&lt;br&gt;(ETL)" style="rounded=1;whiteSpace=wrap;html=1;fontSize=12;" parent="1" vertex="1">
          <mxGeometry x="520" y="160" width="80" height="400" as="geometry" />
        </mxCell>
        <mxCell id="1zE4fZh2yjthQmfedAI8-1" value="" style="endArrow=classic;html=1;rounded=0;fontSize=18;fontColor=#000000;entryX=0;entryY=0.5;entryDx=0;entryDy=0;strokeColor=#2D7600;strokeWidth=3;fillColor=#60a917;" parent="1" edge="1">
          <mxGeometry width="50" height="50" relative="1" as="geometry">
            <mxPoint x="240" y="335" as="sourcePoint" />
            <mxPoint x="300" y="335" as="targetPoint" />
          </mxGeometry>
        </mxCell>
        <mxCell id="1zE4fZh2yjthQmfedAI8-2" value="" style="endArrow=classic;html=1;rounded=0;fontSize=18;fontColor=#000000;entryX=0;entryY=0.5;entryDx=0;entryDy=0;strokeColor=#2D7600;strokeWidth=3;fillColor=#60a917;" parent="1" edge="1">
          <mxGeometry width="50" height="50" relative="1" as="geometry">
            <mxPoint x="465" y="336" as="sourcePoint" />
            <mxPoint x="525" y="336" as="targetPoint" />
          </mxGeometry>
        </mxCell>
        <mxCell id="1zE4fZh2yjthQmfedAI8-3" value="" style="endArrow=classic;html=1;rounded=0;fontSize=18;fontColor=#000000;entryX=0;entryY=0.5;entryDx=0;entryDy=0;strokeColor=#2D7600;strokeWidth=3;fillColor=#60a917;" parent="1" edge="1">
          <mxGeometry width="50" height="50" relative="1" as="geometry">
            <mxPoint x="590" y="336" as="sourcePoint" />
            <mxPoint x="650" y="336" as="targetPoint" />
          </mxGeometry>
        </mxCell>
        <mxCell id="1zE4fZh2yjthQmfedAI8-4" value="" style="endArrow=classic;html=1;rounded=0;fontSize=18;fontColor=#000000;entryX=0;entryY=0.5;entryDx=0;entryDy=0;strokeColor=#2D7600;strokeWidth=3;fillColor=#60a917;" parent="1" edge="1">
          <mxGeometry width="50" height="50" relative="1" as="geometry">
            <mxPoint x="822" y="336" as="sourcePoint" />
            <mxPoint x="882" y="336" as="targetPoint" />
          </mxGeometry>
        </mxCell>
        <mxCell id="1zE4fZh2yjthQmfedAI8-5" value="" style="endArrow=classic;html=1;rounded=0;fontSize=18;fontColor=#000000;entryX=0;entryY=0.5;entryDx=0;entryDy=0;strokeColor=#2D7600;strokeWidth=3;fillColor=#60a917;endFill=1;" parent="1" edge="1">
          <mxGeometry width="50" height="50" relative="1" as="geometry">
            <mxPoint x="1050" y="336" as="sourcePoint" />
            <mxPoint x="1110" y="336" as="targetPoint" />
          </mxGeometry>
        </mxCell>
      </root>
    </mxGraphModel>
  </diagram>
  <diagram name="Future State" id="HBv1KzzV3jWL5Cb1V32m">
    <mxGraphModel dx="1426" dy="857" grid="0" gridSize="10" guides="1" tooltips="1" connect="1" arrows="1" fold="1" page="1" pageScale="1" pageWidth="850" pageHeight="1100" math="0" shadow="0">
      <root>
        <mxCell id="hyJC9mIuy3ANaXY3VcQb-0" />
        <mxCell id="hyJC9mIuy3ANaXY3VcQb-1" parent="hyJC9mIuy3ANaXY3VcQb-0" />
        <mxCell id="cMJbEtjQZFThihdctyKy-47" value="" style="group" parent="hyJC9mIuy3ANaXY3VcQb-1" vertex="1" connectable="0">
          <mxGeometry x="1095" y="352" width="126" height="126" as="geometry" />
        </mxCell>
        <mxCell id="EOGJp4S5Fbets7nDKM-p-0" value="" style="ellipse;whiteSpace=wrap;html=1;aspect=fixed;shadow=0;labelBorderColor=none;strokeColor=#82b366;fontSize=18;fillColor=#d5e8d4;container=1;" parent="cMJbEtjQZFThihdctyKy-47" vertex="1">
          <mxGeometry width="126" height="126" as="geometry" />
        </mxCell>
        <mxCell id="hyJC9mIuy3ANaXY3VcQb-11" value="3rd Party&lt;br&gt;BA / DS" style="shape=umlActor;verticalLabelPosition=bottom;verticalAlign=top;html=1;outlineConnect=0;shadow=0;strokeColor=#82b366;fontSize=18;fillColor=#d5e8d4;" parent="cMJbEtjQZFThihdctyKy-47" vertex="1">
          <mxGeometry x="49" y="16" width="30" height="50" as="geometry" />
        </mxCell>
        <mxCell id="hC9iuBU5DZdMR2iyAppj-4" value="" style="endArrow=classic;html=1;rounded=0;fontSize=18;fontColor=#000000;entryX=0;entryY=0.5;entryDx=0;entryDy=0;strokeColor=#2D7600;strokeWidth=3;fillColor=#60a917;endFill=1;" parent="hyJC9mIuy3ANaXY3VcQb-1" edge="1">
          <mxGeometry width="50" height="50" relative="1" as="geometry">
            <mxPoint x="1046" y="418" as="sourcePoint" />
            <mxPoint x="1106" y="418" as="targetPoint" />
          </mxGeometry>
        </mxCell>
        <mxCell id="cMJbEtjQZFThihdctyKy-34" value="Extract Transform&lt;br&gt;&amp;amp; Load&lt;br&gt;&lt;br&gt;&lt;br&gt;(ETL)" style="rounded=1;whiteSpace=wrap;html=1;fontSize=12;" parent="hyJC9mIuy3ANaXY3VcQb-1" vertex="1">
          <mxGeometry x="520" y="160" width="80" height="400" as="geometry" />
        </mxCell>
        <mxCell id="hyJC9mIuy3ANaXY3VcQb-7" value="Analytics Data Stores &amp;amp; Systems" style="swimlane;whiteSpace=wrap;html=1;shadow=0;strokeColor=default;fontSize=18;startSize=40;" parent="hyJC9mIuy3ANaXY3VcQb-1" vertex="1">
          <mxGeometry x="642" y="80" width="180" height="540" as="geometry" />
        </mxCell>
        <mxCell id="0Jkv3jb7glhRKEIvXEkH-0" value="" style="shape=cylinder3;whiteSpace=wrap;html=1;boundedLbl=1;backgroundOutline=1;size=15;shadow=0;fontSize=18;fillColor=#d5e8d4;strokeColor=#82b366;" parent="hyJC9mIuy3ANaXY3VcQb-7" vertex="1">
          <mxGeometry x="20" y="90" width="140" height="140" as="geometry" />
        </mxCell>
        <mxCell id="0Jkv3jb7glhRKEIvXEkH-1" value="Analytics&lt;br&gt;Data Store" style="text;html=1;strokeColor=none;fillColor=none;align=center;verticalAlign=middle;whiteSpace=wrap;rounded=0;shadow=0;labelBorderColor=none;fontSize=18;fontColor=#000000;" parent="hyJC9mIuy3ANaXY3VcQb-7" vertex="1">
          <mxGeometry x="20" y="240" width="130" height="30" as="geometry" />
        </mxCell>
        <mxCell id="O4PE7a0Fi9K-1KhrLcxD-1" value="AI/ML&lt;br&gt;Tools &amp;amp; Infra." style="rounded=1;whiteSpace=wrap;html=1;shadow=0;strokeColor=#82b366;fontSize=18;fillColor=#d5e8d4;" parent="hyJC9mIuy3ANaXY3VcQb-7" vertex="1">
          <mxGeometry x="20" y="362" width="140" height="60" as="geometry" />
        </mxCell>
        <mxCell id="gAzMdX1-zWV9BWONYZ82-0" value="&lt;font color=&quot;#009900&quot;&gt;Scrubbed&lt;/font&gt;&lt;br&gt;&amp;amp; Ops Data" style="text;html=1;strokeColor=none;fillColor=none;align=center;verticalAlign=middle;whiteSpace=wrap;rounded=0;shadow=0;labelBorderColor=none;fontSize=18;fontColor=#000000;" parent="hyJC9mIuy3ANaXY3VcQb-7" vertex="1">
          <mxGeometry x="20" y="145" width="140" height="30" as="geometry" />
        </mxCell>
        <mxCell id="hyJC9mIuy3ANaXY3VcQb-17" value="Analytics &lt;br&gt;Processes" style="swimlane;whiteSpace=wrap;html=1;shadow=0;strokeColor=default;fontSize=18;startSize=40;" parent="hyJC9mIuy3ANaXY3VcQb-1" vertex="1">
          <mxGeometry x="882" y="80" width="180" height="540" as="geometry" />
        </mxCell>
        <mxCell id="hyJC9mIuy3ANaXY3VcQb-19" value="Business Analytics" style="rounded=1;whiteSpace=wrap;html=1;shadow=0;labelBorderColor=none;strokeColor=#82b366;fontSize=18;fillColor=#d5e8d4;" parent="hyJC9mIuy3ANaXY3VcQb-17" vertex="1">
          <mxGeometry x="30" y="99" width="120" height="60" as="geometry" />
        </mxCell>
        <mxCell id="hyJC9mIuy3ANaXY3VcQb-21" value="AI/ML" style="rounded=1;whiteSpace=wrap;html=1;shadow=0;labelBorderColor=none;strokeColor=#82b366;fontSize=18;fillColor=#d5e8d4;" parent="hyJC9mIuy3ANaXY3VcQb-17" vertex="1">
          <mxGeometry x="30" y="362" width="120" height="60" as="geometry" />
        </mxCell>
        <mxCell id="ElxA8o0fKQ1-Yx0iaPZt-0" value="&lt;u&gt;&lt;span style=&quot;font-size: x-large;&quot;&gt;High-Level&amp;nbsp;&lt;/span&gt;&lt;font size=&quot;5&quot;&gt;Future State&lt;/font&gt;&lt;/u&gt;" style="text;html=1;strokeColor=none;fillColor=none;align=center;verticalAlign=middle;whiteSpace=wrap;rounded=0;fontSize=16;" parent="hyJC9mIuy3ANaXY3VcQb-1" vertex="1">
          <mxGeometry x="301" y="19" width="520" height="30" as="geometry" />
        </mxCell>
        <mxCell id="iMYa6rATb_xm3hTtFsLh-0" value="PII /&lt;br&gt;Sensitive&lt;br&gt;Data&lt;br&gt;Scrub" style="rounded=1;whiteSpace=wrap;html=1;fontSize=12;fillColor=#d5e8d4;strokeColor=#82b366;" parent="hyJC9mIuy3ANaXY3VcQb-1" vertex="1">
          <mxGeometry x="531" y="220" width="60" height="80" as="geometry" />
        </mxCell>
        <mxCell id="hC9iuBU5DZdMR2iyAppj-2" value="" style="endArrow=classic;html=1;rounded=0;fontSize=18;fontColor=#000000;entryX=0;entryY=0.5;entryDx=0;entryDy=0;strokeColor=#2D7600;strokeWidth=3;fillColor=#60a917;" parent="hyJC9mIuy3ANaXY3VcQb-1" edge="1">
          <mxGeometry width="50" height="50" relative="1" as="geometry">
            <mxPoint x="590" y="336" as="sourcePoint" />
            <mxPoint x="650" y="336" as="targetPoint" />
          </mxGeometry>
        </mxCell>
        <mxCell id="hC9iuBU5DZdMR2iyAppj-3" value="" style="endArrow=classic;html=1;rounded=0;fontSize=18;fontColor=#000000;entryX=0;entryY=0.5;entryDx=0;entryDy=0;strokeColor=#2D7600;strokeWidth=3;fillColor=#60a917;" parent="hyJC9mIuy3ANaXY3VcQb-1" edge="1">
          <mxGeometry width="50" height="50" relative="1" as="geometry">
            <mxPoint x="822" y="336" as="sourcePoint" />
            <mxPoint x="882" y="336" as="targetPoint" />
          </mxGeometry>
        </mxCell>
        <mxCell id="cMJbEtjQZFThihdctyKy-26" value="Operational Systems" style="swimlane;whiteSpace=wrap;html=1;shadow=0;strokeColor=default;fontSize=18;startSize=40;dashed=1;" parent="hyJC9mIuy3ANaXY3VcQb-1" vertex="1">
          <mxGeometry x="59" y="80" width="180" height="540" as="geometry" />
        </mxCell>
        <mxCell id="cMJbEtjQZFThihdctyKy-27" value="Interactive&lt;br&gt;Call Center" style="rounded=1;whiteSpace=wrap;html=1;shadow=0;strokeColor=default;fontSize=18;" parent="cMJbEtjQZFThihdctyKy-26" vertex="1">
          <mxGeometry x="21" y="80" width="140" height="60" as="geometry" />
        </mxCell>
        <mxCell id="cMJbEtjQZFThihdctyKy-28" value="Email &lt;br&gt;Support" style="rounded=1;whiteSpace=wrap;html=1;shadow=0;strokeColor=default;fontSize=18;" parent="cMJbEtjQZFThihdctyKy-26" vertex="1">
          <mxGeometry x="21" y="176" width="140" height="60" as="geometry" />
        </mxCell>
        <mxCell id="cMJbEtjQZFThihdctyKy-29" value="..." style="rounded=1;whiteSpace=wrap;html=1;shadow=0;strokeColor=default;fontSize=18;" parent="cMJbEtjQZFThihdctyKy-26" vertex="1">
          <mxGeometry x="21" y="271" width="140" height="60" as="geometry" />
        </mxCell>
        <mxCell id="cMJbEtjQZFThihdctyKy-30" value="Data Sets" style="swimlane;whiteSpace=wrap;html=1;shadow=0;strokeColor=default;fontSize=18;startSize=40;dashed=1;" parent="hyJC9mIuy3ANaXY3VcQb-1" vertex="1">
          <mxGeometry x="300" y="80" width="180" height="540" as="geometry" />
        </mxCell>
        <mxCell id="cMJbEtjQZFThihdctyKy-31" value="&lt;font color=&quot;#9933ff&quot;&gt;Call Logs&lt;/font&gt; &amp;amp; Operations Data" style="rounded=1;whiteSpace=wrap;html=1;shadow=0;strokeColor=default;fontSize=18;" parent="cMJbEtjQZFThihdctyKy-30" vertex="1">
          <mxGeometry x="18" y="80" width="140" height="60" as="geometry" />
        </mxCell>
        <mxCell id="cMJbEtjQZFThihdctyKy-32" value="&lt;font color=&quot;#9933ff&quot;&gt;Emails&lt;/font&gt; &amp;amp; Operations Data" style="rounded=1;whiteSpace=wrap;html=1;shadow=0;strokeColor=default;fontSize=18;" parent="cMJbEtjQZFThihdctyKy-30" vertex="1">
          <mxGeometry x="18" y="176" width="140" height="60" as="geometry" />
        </mxCell>
        <mxCell id="cMJbEtjQZFThihdctyKy-33" value="..." style="rounded=1;whiteSpace=wrap;html=1;shadow=0;strokeColor=default;fontSize=18;" parent="cMJbEtjQZFThihdctyKy-30" vertex="1">
          <mxGeometry x="18" y="272" width="140" height="60" as="geometry" />
        </mxCell>
        <mxCell id="cMJbEtjQZFThihdctyKy-35" value="" style="endArrow=classic;html=1;rounded=0;fontSize=18;fontColor=#000000;entryX=0;entryY=0.5;entryDx=0;entryDy=0;strokeColor=#2D7600;strokeWidth=3;fillColor=#60a917;" parent="hyJC9mIuy3ANaXY3VcQb-1" edge="1">
          <mxGeometry width="50" height="50" relative="1" as="geometry">
            <mxPoint x="240" y="335" as="sourcePoint" />
            <mxPoint x="300" y="335" as="targetPoint" />
          </mxGeometry>
        </mxCell>
        <mxCell id="cMJbEtjQZFThihdctyKy-36" value="" style="endArrow=classic;html=1;rounded=0;fontSize=18;fontColor=#000000;entryX=0;entryY=0.5;entryDx=0;entryDy=0;strokeColor=#2D7600;strokeWidth=3;fillColor=#60a917;" parent="hyJC9mIuy3ANaXY3VcQb-1" edge="1">
          <mxGeometry width="50" height="50" relative="1" as="geometry">
            <mxPoint x="465" y="336" as="sourcePoint" />
            <mxPoint x="525" y="336" as="targetPoint" />
          </mxGeometry>
        </mxCell>
        <mxCell id="cMJbEtjQZFThihdctyKy-44" value="PII Data: &lt;br&gt;1. First &amp;amp; last names, phone numbers, address, emai&lt;br&gt;2. Financial IDs: bank account, credit cards" style="ellipse;shape=cloud;whiteSpace=wrap;html=1;labelBackgroundColor=#FFFFFF;strokeColor=#000000;fontSize=12;fontColor=#000000;fillColor=none;spacingLeft=37;spacingRight=38;" parent="hyJC9mIuy3ANaXY3VcQb-1" vertex="1">
          <mxGeometry x="11" y="596" width="314" height="185" as="geometry" />
        </mxCell>
        <mxCell id="cMJbEtjQZFThihdctyKy-45" value="Customer Sensitive Data:&amp;nbsp;&lt;br&gt;Company names,&lt;br&gt;product names" style="ellipse;shape=cloud;whiteSpace=wrap;html=1;labelBackgroundColor=#FFFFFF;strokeColor=#000000;fontSize=12;fontColor=#000000;fillColor=none;" parent="hyJC9mIuy3ANaXY3VcQb-1" vertex="1">
          <mxGeometry x="913" y="594" width="314" height="185" as="geometry" />
        </mxCell>
        <mxCell id="cMJbEtjQZFThihdctyKy-46" value="" style="group" parent="hyJC9mIuy3ANaXY3VcQb-1" vertex="1" connectable="0">
          <mxGeometry x="1095" y="192" width="126" height="126" as="geometry" />
        </mxCell>
        <mxCell id="jfbZeoB1SQRcuPLxXEkU-0" value="" style="ellipse;whiteSpace=wrap;html=1;aspect=fixed;shadow=0;labelBorderColor=none;strokeColor=#82b366;fontSize=18;fillColor=#d5e8d4;" parent="cMJbEtjQZFThihdctyKy-46" vertex="1">
          <mxGeometry width="126" height="126" as="geometry" />
        </mxCell>
        <mxCell id="hyJC9mIuy3ANaXY3VcQb-10" value="In-House &lt;br&gt;BA / DS" style="shape=umlActor;verticalLabelPosition=bottom;verticalAlign=top;html=1;outlineConnect=0;shadow=0;strokeColor=#82b366;fontSize=18;fillColor=#d5e8d4;" parent="cMJbEtjQZFThihdctyKy-46" vertex="1">
          <mxGeometry x="49" y="10" width="30" height="60" as="geometry" />
        </mxCell>
        <mxCell id="Vzgi_a3mK3YBf326HaKh-0" value="" style="endArrow=classic;html=1;rounded=0;fontSize=18;fontColor=#000000;entryX=0;entryY=0.5;entryDx=0;entryDy=0;strokeColor=#9933FF;strokeWidth=2;" parent="hyJC9mIuy3ANaXY3VcQb-1" edge="1">
          <mxGeometry width="50" height="50" relative="1" as="geometry">
            <mxPoint x="1044" y="266.99999999999994" as="sourcePoint" />
            <mxPoint x="1104" y="266.99999999999994" as="targetPoint" />
          </mxGeometry>
        </mxCell>
        <mxCell id="Vzgi_a3mK3YBf326HaKh-1" value="" style="endArrow=classic;html=1;rounded=0;fontSize=18;fontColor=#000000;entryX=0;entryY=0.5;entryDx=0;entryDy=0;strokeColor=#2D7600;strokeWidth=3;fillColor=#60a917;endFill=1;" parent="hyJC9mIuy3ANaXY3VcQb-1" edge="1">
          <mxGeometry width="50" height="50" relative="1" as="geometry">
            <mxPoint x="1044" y="246" as="sourcePoint" />
            <mxPoint x="1104" y="246" as="targetPoint" />
          </mxGeometry>
        </mxCell>
      </root>
    </mxGraphModel>
  </diagram>
  <diagram name="Concept. Arch." id="U5oCiPYMo4C-_qP5Ro2j">
    <mxGraphModel dx="1487" dy="857" grid="1" gridSize="10" guides="1" tooltips="1" connect="1" arrows="1" fold="1" page="1" pageScale="1" pageWidth="850" pageHeight="1100" math="0" shadow="0">
      <root>
        <mxCell id="vECQrhH6S6L_jKQsrYaC-0" />
        <mxCell id="vECQrhH6S6L_jKQsrYaC-1" parent="vECQrhH6S6L_jKQsrYaC-0" />
        <mxCell id="WoJVJzB--j_4nprUgPEj-0" value="" style="rounded=1;whiteSpace=wrap;html=1;shadow=0;labelBorderColor=none;strokeColor=default;fontSize=18;fontColor=#000000;" parent="vECQrhH6S6L_jKQsrYaC-1" vertex="1">
          <mxGeometry x="1074" y="162" width="201" height="558" as="geometry" />
        </mxCell>
        <mxCell id="WoJVJzB--j_4nprUgPEj-1" value="" style="rounded=1;whiteSpace=wrap;html=1;shadow=0;labelBorderColor=none;strokeColor=default;fontSize=18;fontColor=#000000;" parent="vECQrhH6S6L_jKQsrYaC-1" vertex="1">
          <mxGeometry x="654" y="474" width="410" height="246" as="geometry" />
        </mxCell>
        <mxCell id="WoJVJzB--j_4nprUgPEj-2" value="" style="rounded=1;whiteSpace=wrap;html=1;shadow=0;labelBorderColor=none;strokeColor=default;fontSize=18;fontColor=#000000;" parent="vECQrhH6S6L_jKQsrYaC-1" vertex="1">
          <mxGeometry x="654" y="160" width="410" height="304" as="geometry" />
        </mxCell>
        <mxCell id="WoJVJzB--j_4nprUgPEj-3" value="" style="rounded=1;whiteSpace=wrap;html=1;shadow=0;labelBorderColor=none;strokeColor=default;fontSize=18;fontColor=#000000;" parent="vECQrhH6S6L_jKQsrYaC-1" vertex="1">
          <mxGeometry x="443" y="162" width="201" height="558" as="geometry" />
        </mxCell>
        <mxCell id="vECQrhH6S6L_jKQsrYaC-15" value="Data Sets" style="swimlane;whiteSpace=wrap;html=1;shadow=0;strokeColor=default;fontSize=18;startSize=40;" parent="vECQrhH6S6L_jKQsrYaC-1" vertex="1">
          <mxGeometry x="80" y="80" width="180" height="400" as="geometry" />
        </mxCell>
        <mxCell id="vECQrhH6S6L_jKQsrYaC-16" value="&lt;font color=&quot;#9933ff&quot;&gt;Call Logs&lt;/font&gt; &amp;amp; Operations Data" style="rounded=1;whiteSpace=wrap;html=1;shadow=0;strokeColor=default;fontSize=18;" parent="vECQrhH6S6L_jKQsrYaC-15" vertex="1">
          <mxGeometry x="18" y="60" width="140" height="60" as="geometry" />
        </mxCell>
        <mxCell id="vECQrhH6S6L_jKQsrYaC-17" value="&lt;font color=&quot;#9933ff&quot;&gt;Emails&lt;/font&gt; &amp;amp; Operations Data" style="rounded=1;whiteSpace=wrap;html=1;shadow=0;strokeColor=default;fontSize=18;" parent="vECQrhH6S6L_jKQsrYaC-15" vertex="1">
          <mxGeometry x="18" y="140" width="140" height="60" as="geometry" />
        </mxCell>
        <mxCell id="vECQrhH6S6L_jKQsrYaC-18" value="&lt;font color=&quot;#9933ff&quot;&gt;&lt;span style=&quot;caret-color: rgb(153, 51, 255);&quot;&gt;...&lt;/span&gt;&lt;/font&gt;" style="rounded=1;whiteSpace=wrap;html=1;shadow=0;strokeColor=default;fontSize=18;" parent="vECQrhH6S6L_jKQsrYaC-15" vertex="1">
          <mxGeometry x="18" y="245" width="140" height="60" as="geometry" />
        </mxCell>
        <mxCell id="vECQrhH6S6L_jKQsrYaC-19" value="&lt;font color=&quot;#9933ff&quot;&gt;PII/Sensitive&lt;/font&gt; &amp;amp;&lt;br&gt;Operations Data" style="rounded=1;whiteSpace=wrap;html=1;shadow=0;strokeColor=default;fontSize=18;" parent="vECQrhH6S6L_jKQsrYaC-15" vertex="1">
          <mxGeometry x="20" y="325" width="140" height="60" as="geometry" />
        </mxCell>
        <mxCell id="b8GQMUXerxtxGoJxNrRM-4" value="&lt;font color=&quot;#000000&quot;&gt;In-house&lt;br&gt;BA/DS&lt;/font&gt;" style="shape=umlActor;verticalLabelPosition=bottom;verticalAlign=top;html=1;outlineConnect=0;shadow=0;labelBorderColor=none;strokeColor=default;fontSize=18;fontColor=#9933FF;" parent="vECQrhH6S6L_jKQsrYaC-1" vertex="1">
          <mxGeometry x="210" y="590" width="30" height="60" as="geometry" />
        </mxCell>
        <mxCell id="Kq4Q_HxL_EDb6amXsnjC-2" value="&lt;b&gt;ETL&lt;/b&gt;" style="rounded=1;whiteSpace=wrap;html=1;shadow=0;labelBorderColor=none;strokeColor=default;fontSize=18;fontColor=#000000;" parent="vECQrhH6S6L_jKQsrYaC-1" vertex="1">
          <mxGeometry x="300" y="160" width="80" height="320" as="geometry" />
        </mxCell>
        <mxCell id="Ud3gxGJe9PFryMNVVnPc-3" value="" style="endArrow=classic;html=1;rounded=0;fontSize=18;fontColor=#000000;exitX=0.5;exitY=0;exitDx=0;exitDy=0;entryX=0.5;entryY=0;entryDx=0;entryDy=0;entryPerimeter=0;strokeWidth=3;" parent="vECQrhH6S6L_jKQsrYaC-1" source="Kq4Q_HxL_EDb6amXsnjC-2" target="5A2WZeXUgpdjqzR-YLDR-2" edge="1">
          <mxGeometry width="50" height="50" relative="1" as="geometry">
            <mxPoint x="540" y="370" as="sourcePoint" />
            <mxPoint x="1174.5" y="246" as="targetPoint" />
            <Array as="points">
              <mxPoint x="340" y="120" />
              <mxPoint x="1175" y="120" />
            </Array>
          </mxGeometry>
        </mxCell>
        <mxCell id="Ud3gxGJe9PFryMNVVnPc-4" value="Operations Data" style="text;html=1;strokeColor=none;fillColor=none;align=center;verticalAlign=middle;whiteSpace=wrap;rounded=0;shadow=0;labelBorderColor=none;fontSize=18;fontColor=#000000;" parent="vECQrhH6S6L_jKQsrYaC-1" vertex="1">
          <mxGeometry x="340" y="90" width="190" height="30" as="geometry" />
        </mxCell>
        <mxCell id="Ud3gxGJe9PFryMNVVnPc-6" value="&lt;b&gt;Debug,&lt;br&gt;Reports,&lt;br&gt;...&lt;/b&gt;" style="rounded=1;whiteSpace=wrap;html=1;shadow=0;labelBorderColor=none;strokeColor=default;fontSize=18;fontColor=#000000;" parent="vECQrhH6S6L_jKQsrYaC-1" vertex="1">
          <mxGeometry x="300" y="560" width="80" height="160" as="geometry" />
        </mxCell>
        <mxCell id="WoJVJzB--j_4nprUgPEj-4" value="&lt;b&gt;Secure, Highly Available, Interfaces&lt;/b&gt;" style="text;html=1;strokeColor=none;fillColor=none;align=center;verticalAlign=middle;whiteSpace=wrap;rounded=0;shadow=0;labelBorderColor=none;fontSize=18;fontColor=#000000;" parent="vECQrhH6S6L_jKQsrYaC-1" vertex="1">
          <mxGeometry x="448.5" y="200" width="190" height="30" as="geometry" />
        </mxCell>
        <mxCell id="WoJVJzB--j_4nprUgPEj-5" value="&lt;b&gt;Scrub Data&lt;/b&gt;" style="text;html=1;strokeColor=none;fillColor=none;align=center;verticalAlign=middle;whiteSpace=wrap;rounded=0;shadow=0;labelBorderColor=none;fontSize=18;fontColor=#000000;" parent="vECQrhH6S6L_jKQsrYaC-1" vertex="1">
          <mxGeometry x="764" y="184" width="190" height="30" as="geometry" />
        </mxCell>
        <mxCell id="HjNYrEMp7qiQDzvC1vbF-0" value="&lt;b&gt;Revert Data&lt;/b&gt;" style="text;html=1;strokeColor=none;fillColor=none;align=center;verticalAlign=middle;whiteSpace=wrap;rounded=0;shadow=0;labelBorderColor=none;fontSize=18;fontColor=#000000;" parent="vECQrhH6S6L_jKQsrYaC-1" vertex="1">
          <mxGeometry x="764" y="677" width="190" height="30" as="geometry" />
        </mxCell>
        <mxCell id="KcLXabOQIfNbpXTuFnEk-5" value="" style="endArrow=classic;html=1;rounded=0;fontSize=12;fontColor=#009900;strokeColor=#009900;strokeWidth=3;entryX=0.75;entryY=0;entryDx=0;entryDy=0;dashed=1;" parent="vECQrhH6S6L_jKQsrYaC-1" edge="1">
          <mxGeometry width="50" height="50" relative="1" as="geometry">
            <mxPoint x="383" y="595.3301221995927" as="sourcePoint" />
            <mxPoint x="443" y="595.33" as="targetPoint" />
          </mxGeometry>
        </mxCell>
        <mxCell id="KcLXabOQIfNbpXTuFnEk-6" value="" style="endArrow=classic;html=1;rounded=0;fontSize=18;fontColor=#000000;entryX=0;entryY=0.5;entryDx=0;entryDy=0;strokeColor=#9933FF;strokeWidth=3;dashed=1;" parent="vECQrhH6S6L_jKQsrYaC-1" edge="1">
          <mxGeometry width="50" height="50" relative="1" as="geometry">
            <mxPoint x="679" y="659" as="sourcePoint" />
            <mxPoint x="619" y="660.0000000000001" as="targetPoint" />
          </mxGeometry>
        </mxCell>
        <mxCell id="KcLXabOQIfNbpXTuFnEk-7" value="" style="endArrow=classic;html=1;rounded=0;fontSize=12;fontColor=#009900;strokeColor=#009900;strokeWidth=3;entryX=0.75;entryY=0;entryDx=0;entryDy=0;dashed=1;" parent="vECQrhH6S6L_jKQsrYaC-1" edge="1">
          <mxGeometry width="50" height="50" relative="1" as="geometry">
            <mxPoint x="619" y="591.3301221995927" as="sourcePoint" />
            <mxPoint x="679" y="591.33" as="targetPoint" />
          </mxGeometry>
        </mxCell>
        <mxCell id="Jbev7n5TZAjuA62yBq81-5" value="" style="group" parent="vECQrhH6S6L_jKQsrYaC-1" vertex="1" connectable="0">
          <mxGeometry x="70" y="750" width="180" height="180" as="geometry" />
        </mxCell>
        <mxCell id="Jbev7n5TZAjuA62yBq81-3" value="" style="whiteSpace=wrap;html=1;aspect=fixed;strokeColor=#000000;fontSize=12;fontColor=#000000;" parent="Jbev7n5TZAjuA62yBq81-5" vertex="1">
          <mxGeometry width="180" height="180" as="geometry" />
        </mxCell>
        <mxCell id="Ud3gxGJe9PFryMNVVnPc-7" value="&lt;font color=&quot;#9933ff&quot;&gt;PII/Sensitive Data&lt;/font&gt;" style="text;html=1;strokeColor=none;fillColor=none;align=center;verticalAlign=middle;whiteSpace=wrap;rounded=0;shadow=0;labelBorderColor=none;fontSize=18;fontColor=#000000;" parent="Jbev7n5TZAjuA62yBq81-5" vertex="1">
          <mxGeometry x="7" y="27" width="160" height="30" as="geometry" />
        </mxCell>
        <mxCell id="5plJ2uATQPgv5vO-h2zq-1" value="&lt;font color=&quot;#009900&quot;&gt;Scrubbed Data&lt;/font&gt;" style="text;html=1;strokeColor=none;fillColor=none;align=center;verticalAlign=middle;whiteSpace=wrap;rounded=0;shadow=0;labelBorderColor=none;fontSize=18;fontColor=#000000;" parent="Jbev7n5TZAjuA62yBq81-5" vertex="1">
          <mxGeometry x="7" y="88" width="160" height="30" as="geometry" />
        </mxCell>
        <mxCell id="KcLXabOQIfNbpXTuFnEk-3" value="" style="endArrow=classic;html=1;rounded=0;fontSize=18;fontColor=#000000;strokeColor=#9933FF;strokeWidth=3;" parent="Jbev7n5TZAjuA62yBq81-5" edge="1">
          <mxGeometry width="50" height="50" relative="1" as="geometry">
            <mxPoint x="47" y="20.5" as="sourcePoint" />
            <mxPoint x="127" y="21" as="targetPoint" />
          </mxGeometry>
        </mxCell>
        <mxCell id="KcLXabOQIfNbpXTuFnEk-4" value="" style="endArrow=classic;html=1;rounded=0;fontSize=12;fontColor=#009900;strokeColor=#009900;strokeWidth=3;" parent="Jbev7n5TZAjuA62yBq81-5" edge="1">
          <mxGeometry width="50" height="50" relative="1" as="geometry">
            <mxPoint x="47" y="78" as="sourcePoint" />
            <mxPoint x="127" y="78" as="targetPoint" />
          </mxGeometry>
        </mxCell>
        <mxCell id="Jbev7n5TZAjuA62yBq81-1" value="&lt;font&gt;Ops Data&lt;/font&gt;" style="text;html=1;strokeColor=none;fillColor=none;align=center;verticalAlign=middle;whiteSpace=wrap;rounded=0;shadow=0;labelBorderColor=none;fontSize=18;fontColor=#000000;" parent="Jbev7n5TZAjuA62yBq81-5" vertex="1">
          <mxGeometry x="7" y="142" width="160" height="30" as="geometry" />
        </mxCell>
        <mxCell id="Jbev7n5TZAjuA62yBq81-2" value="" style="endArrow=classic;html=1;rounded=0;fontSize=12;fontColor=#009900;strokeColor=#000000;strokeWidth=3;" parent="Jbev7n5TZAjuA62yBq81-5" edge="1">
          <mxGeometry width="50" height="50" relative="1" as="geometry">
            <mxPoint x="47" y="132" as="sourcePoint" />
            <mxPoint x="127" y="132" as="targetPoint" />
          </mxGeometry>
        </mxCell>
        <mxCell id="Jbev7n5TZAjuA62yBq81-8" value="" style="endArrow=classic;html=1;rounded=0;fontSize=18;fontColor=#000000;entryX=1.038;entryY=0.619;entryDx=0;entryDy=0;strokeColor=#9933FF;strokeWidth=3;entryPerimeter=0;dashed=1;" parent="vECQrhH6S6L_jKQsrYaC-1" target="Ud3gxGJe9PFryMNVVnPc-6" edge="1">
          <mxGeometry width="50" height="50" relative="1" as="geometry">
            <mxPoint x="440" y="660" as="sourcePoint" />
            <mxPoint x="390" y="661" as="targetPoint" />
          </mxGeometry>
        </mxCell>
        <mxCell id="Jbev7n5TZAjuA62yBq81-9" value="" style="endArrow=classic;html=1;rounded=0;fontSize=12;fontColor=#009900;strokeColor=#009900;strokeWidth=3;entryX=0.75;entryY=0;entryDx=0;entryDy=0;" parent="vECQrhH6S6L_jKQsrYaC-1" edge="1">
          <mxGeometry width="50" height="50" relative="1" as="geometry">
            <mxPoint x="1038" y="309.5001221995926" as="sourcePoint" />
            <mxPoint x="1098" y="309.5" as="targetPoint" />
          </mxGeometry>
        </mxCell>
        <mxCell id="5A2WZeXUgpdjqzR-YLDR-2" value="" style="shape=cylinder3;whiteSpace=wrap;html=1;boundedLbl=1;backgroundOutline=1;size=15;shadow=0;strokeColor=#82b366;fontSize=18;fillColor=#d5e8d4;" parent="vECQrhH6S6L_jKQsrYaC-1" vertex="1">
          <mxGeometry x="1105.5" y="199" width="140" height="140" as="geometry" />
        </mxCell>
        <mxCell id="5A2WZeXUgpdjqzR-YLDR-3" value="&lt;font color=&quot;#009900&quot;&gt;Scrubbed&lt;/font&gt;&lt;br&gt;&amp;amp; Ops Data" style="text;html=1;strokeColor=none;fillColor=none;align=center;verticalAlign=middle;whiteSpace=wrap;rounded=0;shadow=0;labelBorderColor=none;fontSize=18;fontColor=#000000;" parent="vECQrhH6S6L_jKQsrYaC-1" vertex="1">
          <mxGeometry x="1114.5" y="268" width="125.5" height="30" as="geometry" />
        </mxCell>
        <mxCell id="ZVf5o5FCNgTjF1t6p-4r-0" value="&lt;b&gt;Analytics&lt;br&gt;Data Stores &amp;amp; &amp;nbsp;Systems&lt;/b&gt;" style="text;html=1;strokeColor=none;fillColor=none;align=center;verticalAlign=middle;whiteSpace=wrap;rounded=0;shadow=0;labelBorderColor=none;fontSize=18;fontColor=#000000;" parent="vECQrhH6S6L_jKQsrYaC-1" vertex="1">
          <mxGeometry x="1090" y="666" width="160" height="30" as="geometry" />
        </mxCell>
        <mxCell id="wKE5nm-SS70sGp9_8txt-0" value="&lt;font style=&quot;font-size: 24px;&quot;&gt;&lt;u&gt;Conceptual Architecture: PII/Sensitive Data Scrub&lt;/u&gt;&lt;/font&gt;" style="text;html=1;strokeColor=none;fillColor=none;align=center;verticalAlign=middle;whiteSpace=wrap;rounded=0;fontSize=16;" parent="vECQrhH6S6L_jKQsrYaC-1" vertex="1">
          <mxGeometry x="490" y="10" width="570" height="30" as="geometry" />
        </mxCell>
        <mxCell id="evHc9JdPxS25grD69CpZ-1" style="edgeStyle=orthogonalEdgeStyle;rounded=0;orthogonalLoop=1;jettySize=auto;html=1;exitX=0.5;exitY=1;exitDx=0;exitDy=0;dashed=1;strokeColor=#000000;strokeWidth=3;fontSize=12;fontColor=#000000;endArrow=classic;endFill=1;" parent="vECQrhH6S6L_jKQsrYaC-1" source="Kq4Q_HxL_EDb6amXsnjC-2" target="Kq4Q_HxL_EDb6amXsnjC-2" edge="1">
          <mxGeometry relative="1" as="geometry" />
        </mxCell>
        <mxCell id="P1VBO0125E697iJatHT7-1" value="" style="endArrow=classic;html=1;rounded=0;fontSize=12;fontColor=#009900;strokeColor=#000000;strokeWidth=3;" parent="vECQrhH6S6L_jKQsrYaC-1" edge="1">
          <mxGeometry width="50" height="50" relative="1" as="geometry">
            <mxPoint x="240" y="212.66999999999996" as="sourcePoint" />
            <mxPoint x="300" y="213" as="targetPoint" />
          </mxGeometry>
        </mxCell>
        <mxCell id="P1VBO0125E697iJatHT7-9" value="" style="endArrow=classic;html=1;rounded=0;fontSize=12;fontColor=#009900;strokeColor=#9933FF;strokeWidth=3;" parent="vECQrhH6S6L_jKQsrYaC-1" edge="1">
          <mxGeometry width="50" height="50" relative="1" as="geometry">
            <mxPoint x="240" y="310.33000000000004" as="sourcePoint" />
            <mxPoint x="300" y="310" as="targetPoint" />
          </mxGeometry>
        </mxCell>
        <mxCell id="P1VBO0125E697iJatHT7-12" value="" style="endArrow=classic;html=1;rounded=0;fontSize=12;fontColor=#009900;strokeColor=#9933FF;strokeWidth=3;" parent="vECQrhH6S6L_jKQsrYaC-1" edge="1">
          <mxGeometry width="50" height="50" relative="1" as="geometry">
            <mxPoint x="380" y="310" as="sourcePoint" />
            <mxPoint x="440" y="310" as="targetPoint" />
          </mxGeometry>
        </mxCell>
        <mxCell id="P1VBO0125E697iJatHT7-13" value="" style="endArrow=classic;html=1;rounded=0;fontSize=12;fontColor=#009900;strokeColor=#9933FF;strokeWidth=3;entryX=0.75;entryY=0;entryDx=0;entryDy=0;" parent="vECQrhH6S6L_jKQsrYaC-1" edge="1">
          <mxGeometry width="50" height="50" relative="1" as="geometry">
            <mxPoint x="620" y="310.33012219959255" as="sourcePoint" />
            <mxPoint x="680" y="310.3299999999999" as="targetPoint" />
          </mxGeometry>
        </mxCell>
        <mxCell id="PHR2fQdSCYeFjv3kxftx-0" value="AI/ML&lt;br&gt;Tools &amp;amp; Infra." style="rounded=1;whiteSpace=wrap;html=1;shadow=0;strokeColor=#82b366;fontSize=18;fillColor=#d5e8d4;" parent="vECQrhH6S6L_jKQsrYaC-1" vertex="1">
          <mxGeometry x="1104.5" y="560" width="140" height="60" as="geometry" />
        </mxCell>
        <mxCell id="PHR2fQdSCYeFjv3kxftx-1" value="" style="group" parent="vECQrhH6S6L_jKQsrYaC-1" vertex="1" connectable="0">
          <mxGeometry x="1282" y="400" width="112" height="60" as="geometry" />
        </mxCell>
        <mxCell id="zb7ac9jDfZKzmnh5ZbrA-6" value="&lt;font color=&quot;#000000&quot;&gt;BA/DS&lt;/font&gt;" style="shape=umlActor;verticalLabelPosition=bottom;verticalAlign=top;html=1;outlineConnect=0;shadow=0;labelBorderColor=none;strokeColor=default;fontSize=18;fontColor=#9933FF;" parent="PHR2fQdSCYeFjv3kxftx-1" vertex="1">
          <mxGeometry x="82" width="30" height="60" as="geometry" />
        </mxCell>
        <mxCell id="zb7ac9jDfZKzmnh5ZbrA-7" value="" style="endArrow=classic;html=1;rounded=0;fontSize=18;fontColor=#000000;entryX=0;entryY=0.5;entryDx=0;entryDy=0;strokeColor=#009900;strokeWidth=3;endFill=1;" parent="PHR2fQdSCYeFjv3kxftx-1" edge="1">
          <mxGeometry width="50" height="50" relative="1" as="geometry">
            <mxPoint x="60" y="31.33000000000004" as="sourcePoint" />
            <mxPoint y="32.33000000000004" as="targetPoint" />
          </mxGeometry>
        </mxCell>
        <mxCell id="zb7ac9jDfZKzmnh5ZbrA-8" value="" style="endArrow=classic;html=1;rounded=0;fontSize=12;fontColor=#009900;strokeColor=#009900;strokeWidth=3;entryX=0.75;entryY=0;entryDx=0;entryDy=0;" parent="PHR2fQdSCYeFjv3kxftx-1" edge="1">
          <mxGeometry width="50" height="50" relative="1" as="geometry">
            <mxPoint x="15" y="32.33012219959261" as="sourcePoint" />
            <mxPoint x="75" y="32.329999999999984" as="targetPoint" />
          </mxGeometry>
        </mxCell>
        <mxCell id="PrDSWstC19jMumOGyMrQ-0" value="" style="endArrow=none;html=1;rounded=0;" parent="vECQrhH6S6L_jKQsrYaC-1" edge="1">
          <mxGeometry width="50" height="50" relative="1" as="geometry">
            <mxPoint x="280" y="799" as="sourcePoint" />
            <mxPoint x="1280" y="799" as="targetPoint" />
          </mxGeometry>
        </mxCell>
        <mxCell id="fTnO9sglFqiWecDihFTP-0" value="Req/Resp Arrows" parent="vECQrhH6S6L_jKQsrYaC-0" visible="0" />
        <mxCell id="9efnTQHFzsuc2kEJRo5x-0" value="" style="endArrow=classic;html=1;rounded=0;fontSize=18;fontColor=#000000;entryX=0;entryY=0.5;entryDx=0;entryDy=0;strokeColor=#009900;strokeWidth=3;dashed=1;" parent="fTnO9sglFqiWecDihFTP-0" edge="1">
          <mxGeometry width="50" height="50" relative="1" as="geometry">
            <mxPoint x="440" y="339" as="sourcePoint" />
            <mxPoint x="380" y="340" as="targetPoint" />
          </mxGeometry>
        </mxCell>
        <mxCell id="zb7ac9jDfZKzmnh5ZbrA-4" value="" style="endArrow=classic;html=1;rounded=0;fontSize=18;fontColor=#000000;entryX=0;entryY=0.5;entryDx=0;entryDy=0;strokeColor=#009900;strokeWidth=3;dashed=1;" parent="fTnO9sglFqiWecDihFTP-0" edge="1">
          <mxGeometry width="50" height="50" relative="1" as="geometry">
            <mxPoint x="680" y="339" as="sourcePoint" />
            <mxPoint x="620" y="340" as="targetPoint" />
          </mxGeometry>
        </mxCell>
        <mxCell id="9efnTQHFzsuc2kEJRo5x-1" value="" style="endArrow=classic;html=1;rounded=0;fontSize=18;fontColor=#000000;entryX=0.5;entryY=0;entryDx=0;entryDy=0;entryPerimeter=0;strokeWidth=3;fillColor=#d5e8d4;strokeColor=#009900;dashed=1;" parent="fTnO9sglFqiWecDihFTP-0" edge="1">
          <mxGeometry width="50" height="50" relative="1" as="geometry">
            <mxPoint x="350" y="160" as="sourcePoint" />
            <mxPoint x="1185.5" y="209" as="targetPoint" />
            <Array as="points">
              <mxPoint x="350" y="130" />
              <mxPoint x="1185" y="130" />
            </Array>
          </mxGeometry>
        </mxCell>
        <mxCell id="5WckvJS9hys0C0neRH8M-0" value="" style="endArrow=none;html=1;rounded=0;" edge="1" parent="fTnO9sglFqiWecDihFTP-0">
          <mxGeometry width="50" height="50" relative="1" as="geometry">
            <mxPoint x="280" y="990" as="sourcePoint" />
            <mxPoint x="1280" y="990" as="targetPoint" />
          </mxGeometry>
        </mxCell>
        <mxCell id="aJ0QvmJ6IRqmMJEQwCCZ-8" value="AWS Extra Services" parent="vECQrhH6S6L_jKQsrYaC-0" visible="0" />
        <mxCell id="OXiLPqIgGO-Nqdxe6aSr-3" value="" style="group" parent="aJ0QvmJ6IRqmMJEQwCCZ-8" vertex="1" connectable="0">
          <mxGeometry x="600" y="1020" width="96" height="115" as="geometry" />
        </mxCell>
        <mxCell id="7tzAMNuTQEDVPN01q9rU-1" value="" style="outlineConnect=0;dashed=0;verticalLabelPosition=bottom;verticalAlign=top;align=center;html=1;shape=mxgraph.aws3.cloudtrail;fillColor=#759C3E;gradientColor=none;labelBackgroundColor=#000000;strokeColor=#000000;fontSize=15;fontColor=#FFFFFF;" parent="OXiLPqIgGO-Nqdxe6aSr-3" vertex="1">
          <mxGeometry x="9.5" width="74" height="73" as="geometry" />
        </mxCell>
        <mxCell id="OXiLPqIgGO-Nqdxe6aSr-1" value="&lt;font style=&quot;font-size: 12px;&quot;&gt;AWS&amp;nbsp;&lt;br&gt;Cloud Trail&lt;br&gt;&lt;/font&gt;" style="text;html=1;strokeColor=none;fillColor=none;align=center;verticalAlign=middle;whiteSpace=wrap;rounded=0;dashed=1;labelBackgroundColor=#FFFFFF;fontSize=15;fontColor=#000000;" parent="OXiLPqIgGO-Nqdxe6aSr-3" vertex="1">
          <mxGeometry y="85" width="96" height="30" as="geometry" />
        </mxCell>
        <mxCell id="7tzAMNuTQEDVPN01q9rU-0" value="Amazon&lt;br&gt;CloudWatch&lt;br&gt;" style="outlineConnect=0;fontColor=#232F3E;gradientColor=#F34482;gradientDirection=north;fillColor=#BC1356;strokeColor=#ffffff;dashed=0;verticalLabelPosition=bottom;verticalAlign=top;align=center;html=1;fontSize=12;fontStyle=0;aspect=fixed;shape=mxgraph.aws4.resourceIcon;resIcon=mxgraph.aws4.cloudwatch;labelBackgroundColor=#ffffff;" parent="aJ0QvmJ6IRqmMJEQwCCZ-8" vertex="1">
          <mxGeometry x="742.0000000000002" y="1020" width="78" height="78" as="geometry" />
        </mxCell>
        <mxCell id="aJ0QvmJ6IRqmMJEQwCCZ-11" value="" style="group" vertex="1" connectable="0" parent="aJ0QvmJ6IRqmMJEQwCCZ-8">
          <mxGeometry x="461" y="1010" width="99" height="125" as="geometry" />
        </mxCell>
        <mxCell id="7tzAMNuTQEDVPN01q9rU-2" value="" style="outlineConnect=0;dashed=0;verticalLabelPosition=bottom;verticalAlign=top;align=center;html=1;shape=mxgraph.aws3.iam;fillColor=#759C3E;gradientColor=none;labelBackgroundColor=#000000;strokeColor=#000000;fontSize=15;fontColor=#FFFFFF;" parent="aJ0QvmJ6IRqmMJEQwCCZ-11" vertex="1">
          <mxGeometry x="28.359375" y="20.833333333333258" width="43.828125" height="63.54166666666667" as="geometry" />
        </mxCell>
        <mxCell id="OXiLPqIgGO-Nqdxe6aSr-2" value="" style="group" parent="aJ0QvmJ6IRqmMJEQwCCZ-11" vertex="1" connectable="0">
          <mxGeometry width="99" height="125" as="geometry" />
        </mxCell>
        <mxCell id="OXiLPqIgGO-Nqdxe6aSr-0" value="&lt;font style=&quot;font-size: 12px;&quot;&gt;Amazon &amp;nbsp;Identity &amp;amp; Access Mgmt.&lt;/font&gt;" style="text;html=1;strokeColor=none;fillColor=none;align=center;verticalAlign=middle;whiteSpace=wrap;rounded=0;dashed=1;labelBackgroundColor=#FFFFFF;fontSize=15;fontColor=#000000;" parent="OXiLPqIgGO-Nqdxe6aSr-2" vertex="1">
          <mxGeometry y="93.75" width="99" height="31.250000000000004" as="geometry" />
        </mxCell>
        <mxCell id="aJ0QvmJ6IRqmMJEQwCCZ-7" value="AWS Services" parent="vECQrhH6S6L_jKQsrYaC-0" visible="0" />
        <mxCell id="xL5HOf-qpeLGTcusrbmE-6" value="" style="group" parent="aJ0QvmJ6IRqmMJEQwCCZ-7" vertex="1" connectable="0">
          <mxGeometry x="350" y="850" width="90" height="108" as="geometry" />
        </mxCell>
        <mxCell id="xL5HOf-qpeLGTcusrbmE-2" value="" style="sketch=0;points=[[0,0,0],[0.25,0,0],[0.5,0,0],[0.75,0,0],[1,0,0],[0,1,0],[0.25,1,0],[0.5,1,0],[0.75,1,0],[1,1,0],[0,0.25,0],[0,0.5,0],[0,0.75,0],[1,0.25,0],[1,0.5,0],[1,0.75,0]];outlineConnect=0;fontColor=#232F3E;gradientColor=#F54749;gradientDirection=north;fillColor=#C7131F;strokeColor=#ffffff;dashed=0;verticalLabelPosition=bottom;verticalAlign=top;align=center;html=1;fontSize=12;fontStyle=0;aspect=fixed;shape=mxgraph.aws4.resourceIcon;resIcon=mxgraph.aws4.waf;labelBackgroundColor=#000000;" parent="xL5HOf-qpeLGTcusrbmE-6" vertex="1">
          <mxGeometry x="8" width="75" height="75" as="geometry" />
        </mxCell>
        <mxCell id="xL5HOf-qpeLGTcusrbmE-4" value="&lt;font style=&quot;font-size: 12px;&quot;&gt;AWS Web &lt;br&gt;App Firewall&lt;/font&gt;" style="text;html=1;align=center;verticalAlign=middle;whiteSpace=wrap;rounded=0;dashed=1;labelBackgroundColor=#FFFFFF;fontSize=15;" parent="xL5HOf-qpeLGTcusrbmE-6" vertex="1">
          <mxGeometry y="78" width="90" height="30" as="geometry" />
        </mxCell>
        <mxCell id="xL5HOf-qpeLGTcusrbmE-7" value="" style="group" parent="aJ0QvmJ6IRqmMJEQwCCZ-7" vertex="1" connectable="0">
          <mxGeometry x="464" y="850" width="90" height="108.5" as="geometry" />
        </mxCell>
        <mxCell id="xL5HOf-qpeLGTcusrbmE-1" value="" style="sketch=0;points=[[0,0,0],[0.25,0,0],[0.5,0,0],[0.75,0,0],[1,0,0],[0,1,0],[0.25,1,0],[0.5,1,0],[0.75,1,0],[1,1,0],[0,0.25,0],[0,0.5,0],[0,0.75,0],[1,0.25,0],[1,0.5,0],[1,0.75,0]];outlineConnect=0;fontColor=#232F3E;gradientColor=#945DF2;gradientDirection=north;fillColor=#5A30B5;strokeColor=#ffffff;dashed=0;verticalLabelPosition=bottom;verticalAlign=top;align=center;html=1;fontSize=12;fontStyle=0;aspect=fixed;shape=mxgraph.aws4.resourceIcon;resIcon=mxgraph.aws4.api_gateway;labelBackgroundColor=#000000;" parent="xL5HOf-qpeLGTcusrbmE-7" vertex="1">
          <mxGeometry x="5" width="78" height="78" as="geometry" />
        </mxCell>
        <mxCell id="xL5HOf-qpeLGTcusrbmE-5" value="&lt;font style=&quot;font-size: 12px;&quot;&gt;Amazon API Gateway&lt;/font&gt;" style="text;html=1;strokeColor=none;fillColor=none;align=center;verticalAlign=middle;whiteSpace=wrap;rounded=0;dashed=1;labelBackgroundColor=#FFFFFF;fontSize=15;fontColor=#000000;" parent="xL5HOf-qpeLGTcusrbmE-7" vertex="1">
          <mxGeometry y="78.5" width="90" height="30" as="geometry" />
        </mxCell>
        <mxCell id="xL5HOf-qpeLGTcusrbmE-8" value="" style="group" parent="aJ0QvmJ6IRqmMJEQwCCZ-7" vertex="1" connectable="0">
          <mxGeometry x="575" y="850" width="96" height="113" as="geometry" />
        </mxCell>
        <mxCell id="xL5HOf-qpeLGTcusrbmE-0" value="" style="sketch=0;points=[[0,0,0],[0.25,0,0],[0.5,0,0],[0.75,0,0],[1,0,0],[0,1,0],[0.25,1,0],[0.5,1,0],[0.75,1,0],[1,1,0],[0,0.25,0],[0,0.5,0],[0,0.75,0],[1,0.25,0],[1,0.5,0],[1,0.75,0]];outlineConnect=0;fontColor=#232F3E;gradientColor=#60A337;gradientDirection=north;fillColor=#277116;strokeColor=#ffffff;dashed=0;verticalLabelPosition=bottom;verticalAlign=top;align=center;html=1;fontSize=12;fontStyle=0;aspect=fixed;shape=mxgraph.aws4.resourceIcon;resIcon=mxgraph.aws4.s3;" parent="xL5HOf-qpeLGTcusrbmE-8" vertex="1">
          <mxGeometry x="9" width="78" height="78" as="geometry" />
        </mxCell>
        <mxCell id="xL5HOf-qpeLGTcusrbmE-3" value="&lt;font style=&quot;font-size: 12px;&quot;&gt;Amazon Simple Storage Service&lt;/font&gt;" style="text;html=1;strokeColor=none;fillColor=none;align=center;verticalAlign=middle;whiteSpace=wrap;rounded=0;dashed=1;labelBackgroundColor=#FFFFFF;fontSize=15;fontColor=#000000;" parent="xL5HOf-qpeLGTcusrbmE-8" vertex="1">
          <mxGeometry y="83" width="96" height="30" as="geometry" />
        </mxCell>
        <mxCell id="7FoGuZenqCTC9W7DuXUZ-6" value="" style="group" parent="aJ0QvmJ6IRqmMJEQwCCZ-7" vertex="1" connectable="0">
          <mxGeometry x="692" y="850" width="90" height="105" as="geometry" />
        </mxCell>
        <mxCell id="7FoGuZenqCTC9W7DuXUZ-2" value="" style="sketch=0;points=[[0,0,0],[0.25,0,0],[0.5,0,0],[0.75,0,0],[1,0,0],[0,1,0],[0.25,1,0],[0.5,1,0],[0.75,1,0],[1,1,0],[0,0.25,0],[0,0.5,0],[0,0.75,0],[1,0.25,0],[1,0.5,0],[1,0.75,0]];outlineConnect=0;fontColor=#232F3E;gradientColor=#4AB29A;gradientDirection=north;fillColor=#116D5B;strokeColor=#ffffff;dashed=0;verticalLabelPosition=bottom;verticalAlign=top;align=center;html=1;fontSize=12;fontStyle=0;aspect=fixed;shape=mxgraph.aws4.resourceIcon;resIcon=mxgraph.aws4.comprehend;" parent="7FoGuZenqCTC9W7DuXUZ-6" vertex="1">
          <mxGeometry x="5" width="78" height="78" as="geometry" />
        </mxCell>
        <mxCell id="7FoGuZenqCTC9W7DuXUZ-4" value="&lt;span style=&quot;font-size: 12px;&quot;&gt;Amazon Comprehend&lt;/span&gt;" style="text;html=1;strokeColor=none;fillColor=none;align=center;verticalAlign=middle;whiteSpace=wrap;rounded=0;dashed=1;labelBackgroundColor=#FFFFFF;fontSize=15;fontColor=#000000;" parent="7FoGuZenqCTC9W7DuXUZ-6" vertex="1">
          <mxGeometry y="75" width="90" height="30" as="geometry" />
        </mxCell>
        <mxCell id="7FoGuZenqCTC9W7DuXUZ-7" value="" style="group" parent="aJ0QvmJ6IRqmMJEQwCCZ-7" vertex="1" connectable="0">
          <mxGeometry x="792" y="850" width="119" height="106" as="geometry" />
        </mxCell>
        <mxCell id="7FoGuZenqCTC9W7DuXUZ-3" value="" style="sketch=0;points=[[0,0,0],[0.25,0,0],[0.5,0,0],[0.75,0,0],[1,0,0],[0,1,0],[0.25,1,0],[0.5,1,0],[0.75,1,0],[1,1,0],[0,0.25,0],[0,0.5,0],[0,0.75,0],[1,0.25,0],[1,0.5,0],[1,0.75,0]];outlineConnect=0;fontColor=#232F3E;gradientColor=#4AB29A;gradientDirection=north;fillColor=#116D5B;strokeColor=#ffffff;dashed=0;verticalLabelPosition=bottom;verticalAlign=top;align=center;html=1;fontSize=12;fontStyle=0;aspect=fixed;shape=mxgraph.aws4.resourceIcon;resIcon=mxgraph.aws4.elastic_inference_2;" parent="7FoGuZenqCTC9W7DuXUZ-7" vertex="1">
          <mxGeometry x="19" width="78" height="78" as="geometry" />
        </mxCell>
        <mxCell id="7FoGuZenqCTC9W7DuXUZ-5" value="&lt;font style=&quot;font-size: 12px;&quot;&gt;Amazon &amp;nbsp;Sagemaker Serverless Endpoint&lt;/font&gt;" style="text;html=1;strokeColor=none;fillColor=none;align=center;verticalAlign=middle;whiteSpace=wrap;rounded=0;dashed=1;labelBackgroundColor=#FFFFFF;fontSize=15;fontColor=#000000;" parent="7FoGuZenqCTC9W7DuXUZ-7" vertex="1">
          <mxGeometry y="76" width="119" height="30" as="geometry" />
        </mxCell>
        <mxCell id="7FoGuZenqCTC9W7DuXUZ-1" value="Amazon&lt;br&gt;DynamoDB&lt;br&gt;" style="outlineConnect=0;fontColor=#232F3E;gradientColor=#4D72F3;gradientDirection=north;fillColor=#3334B9;strokeColor=#ffffff;dashed=0;verticalLabelPosition=bottom;verticalAlign=top;align=center;html=1;fontSize=12;fontStyle=0;aspect=fixed;shape=mxgraph.aws4.resourceIcon;resIcon=mxgraph.aws4.dynamodb;labelBackgroundColor=#ffffff;spacingTop=5;" parent="aJ0QvmJ6IRqmMJEQwCCZ-7" vertex="1">
          <mxGeometry x="926" y="850" width="78" height="78" as="geometry" />
        </mxCell>
        <mxCell id="7FoGuZenqCTC9W7DuXUZ-0" value="Lambda&lt;br&gt;function" style="outlineConnect=0;fontColor=#232F3E;gradientColor=none;fillColor=#D05C17;strokeColor=none;dashed=0;verticalLabelPosition=bottom;verticalAlign=top;align=center;html=1;fontSize=12;fontStyle=0;aspect=fixed;pointerEvents=1;shape=mxgraph.aws4.lambda_function;labelBackgroundColor=#ffffff;" parent="aJ0QvmJ6IRqmMJEQwCCZ-7" vertex="1">
          <mxGeometry x="1040" y="850" width="78" height="78" as="geometry" />
        </mxCell>
        <mxCell id="yWW_EnF610vWrLxdBX5M-0" value="Amazon SageMaker" style="sketch=0;outlineConnect=0;fontColor=#232F3E;gradientColor=none;strokeColor=#ffffff;fillColor=#232F3E;dashed=0;verticalLabelPosition=middle;verticalAlign=bottom;align=center;html=1;whiteSpace=wrap;fontSize=10;fontStyle=1;spacing=3;shape=mxgraph.aws4.productIcon;prIcon=mxgraph.aws4.sagemaker;" parent="aJ0QvmJ6IRqmMJEQwCCZ-7" vertex="1">
          <mxGeometry x="1153.5" y="850" width="80" height="110" as="geometry" />
        </mxCell>
        <mxCell id="aJ0QvmJ6IRqmMJEQwCCZ-0" value="Interface Elements" parent="vECQrhH6S6L_jKQsrYaC-0" visible="0" />
        <mxCell id="sCKVypPQqQM7mhlRXmda-0" value="Batch" style="rounded=1;whiteSpace=wrap;html=1;shadow=0;labelBorderColor=none;strokeColor=default;fontSize=18;fontColor=#000000;" parent="aJ0QvmJ6IRqmMJEQwCCZ-0" vertex="1">
          <mxGeometry x="483.5" y="281" width="120" height="60" as="geometry" />
        </mxCell>
        <mxCell id="sCKVypPQqQM7mhlRXmda-1" value="Request / Response" style="rounded=1;whiteSpace=wrap;html=1;shadow=0;labelBorderColor=none;strokeColor=default;fontSize=18;fontColor=#000000;" parent="aJ0QvmJ6IRqmMJEQwCCZ-0" vertex="1">
          <mxGeometry x="483.5" y="410" width="120" height="60" as="geometry" />
        </mxCell>
        <mxCell id="aJ0QvmJ6IRqmMJEQwCCZ-2" value="Revert Data Elements" parent="vECQrhH6S6L_jKQsrYaC-0" visible="0" />
        <mxCell id="NZa2NsZIj8Kjokl1UHhB-2" value="Apply Revisions" style="rounded=1;whiteSpace=wrap;html=1;shadow=0;labelBorderColor=none;strokeColor=default;fontSize=18;fontColor=#000000;" parent="aJ0QvmJ6IRqmMJEQwCCZ-2" vertex="1">
          <mxGeometry x="800" y="608" width="120" height="60" as="geometry" />
        </mxCell>
        <mxCell id="NZa2NsZIj8Kjokl1UHhB-1" value="Store/Return Original&lt;br&gt;&amp;nbsp;Data" style="rounded=1;whiteSpace=wrap;html=1;shadow=0;labelBorderColor=none;strokeColor=default;fontSize=18;fontColor=#000000;" parent="aJ0QvmJ6IRqmMJEQwCCZ-2" vertex="1">
          <mxGeometry x="904" y="503" width="120" height="60" as="geometry" />
        </mxCell>
        <mxCell id="NZa2NsZIj8Kjokl1UHhB-0" value="Retrieve Replacement&lt;br&gt;Data" style="rounded=1;whiteSpace=wrap;html=1;shadow=0;labelBorderColor=none;strokeColor=default;fontSize=18;fontColor=#000000;" parent="aJ0QvmJ6IRqmMJEQwCCZ-2" vertex="1">
          <mxGeometry x="700" y="503" width="120" height="60" as="geometry" />
        </mxCell>
        <mxCell id="aJ0QvmJ6IRqmMJEQwCCZ-3" value="" style="endArrow=classic;html=1;rounded=0;fontSize=12;fontColor=#009900;strokeColor=#9933FF;strokeWidth=3;dashed=1;" edge="1" parent="aJ0QvmJ6IRqmMJEQwCCZ-2">
          <mxGeometry width="50" height="50" relative="1" as="geometry">
            <mxPoint x="381" y="611" as="sourcePoint" />
            <mxPoint x="441" y="611" as="targetPoint" />
          </mxGeometry>
        </mxCell>
        <mxCell id="aJ0QvmJ6IRqmMJEQwCCZ-4" value="" style="endArrow=classic;html=1;rounded=0;fontSize=18;fontColor=#000000;entryX=0;entryY=0.5;entryDx=0;entryDy=0;strokeColor=#009900;strokeWidth=3;dashed=1;" edge="1" parent="aJ0QvmJ6IRqmMJEQwCCZ-2">
          <mxGeometry width="50" height="50" relative="1" as="geometry">
            <mxPoint x="442" y="640" as="sourcePoint" />
            <mxPoint x="382" y="641" as="targetPoint" />
          </mxGeometry>
        </mxCell>
        <mxCell id="aJ0QvmJ6IRqmMJEQwCCZ-1" value="Scrub Data Elements" parent="vECQrhH6S6L_jKQsrYaC-0" visible="0" />
        <mxCell id="WKvfVJkwNvhVaHAh-ljj-0" value="Detect PII/Sensitive" style="rounded=1;whiteSpace=wrap;html=1;shadow=0;labelBorderColor=none;strokeColor=default;fontSize=18;fontColor=#000000;" parent="aJ0QvmJ6IRqmMJEQwCCZ-1" vertex="1">
          <mxGeometry x="700" y="220" width="120" height="60" as="geometry" />
        </mxCell>
        <mxCell id="WKvfVJkwNvhVaHAh-ljj-1" value="Replace PII/Sensitive" style="rounded=1;whiteSpace=wrap;html=1;shadow=0;labelBorderColor=none;strokeColor=default;fontSize=18;fontColor=#000000;" parent="aJ0QvmJ6IRqmMJEQwCCZ-1" vertex="1">
          <mxGeometry x="904" y="220" width="120" height="60" as="geometry" />
        </mxCell>
        <mxCell id="WKvfVJkwNvhVaHAh-ljj-2" value="Store Replacement&lt;br&gt;Data" style="rounded=1;whiteSpace=wrap;html=1;shadow=0;labelBorderColor=none;strokeColor=default;fontSize=18;fontColor=#000000;" parent="aJ0QvmJ6IRqmMJEQwCCZ-1" vertex="1">
          <mxGeometry x="700" y="383" width="120" height="60" as="geometry" />
        </mxCell>
        <mxCell id="evHc9JdPxS25grD69CpZ-0" value="Store/Return Scrubbed Data" style="rounded=1;whiteSpace=wrap;html=1;shadow=0;labelBorderColor=none;strokeColor=default;fontSize=18;fontColor=#000000;" parent="aJ0QvmJ6IRqmMJEQwCCZ-1" vertex="1">
          <mxGeometry x="904" y="383" width="120" height="60" as="geometry" />
        </mxCell>
      </root>
    </mxGraphModel>
  </diagram>
  <diagram id="BXo77lAgG9FU17EozOgL" name="Meeting Notes">
    <mxGraphModel dx="1426" dy="857" grid="1" gridSize="10" guides="1" tooltips="1" connect="1" arrows="1" fold="1" page="1" pageScale="1" pageWidth="850" pageHeight="1100" math="0" shadow="0">
      <root>
        <mxCell id="0" />
        <mxCell id="1" parent="0" />
        <mxCell id="5N7ZbJTw_4b1dOMRKxE2-1" value="&lt;h1&gt;Toby Fotherby&lt;/h1&gt;&lt;p&gt;Sr. AI/ML Specialist Solutions Architect&lt;/p&gt;&lt;p&gt;fotherby@amazon.com&lt;/p&gt;" style="text;html=1;strokeColor=none;fillColor=none;spacing=5;spacingTop=-20;whiteSpace=wrap;overflow=hidden;rounded=0;" parent="1" vertex="1">
          <mxGeometry x="770" y="20" width="240" height="120" as="geometry" />
        </mxCell>
        <mxCell id="5N7ZbJTw_4b1dOMRKxE2-3" value="&lt;h1&gt;Parking lot / Follow-up&lt;/h1&gt;&lt;h1&gt;&lt;ul&gt;&lt;li&gt;&lt;font style=&quot;font-size: 18px;&quot;&gt;&lt;span style=&quot;font-weight: normal;&quot;&gt;Lorem ipsum ...&lt;/span&gt;&lt;br&gt;&lt;/font&gt;&lt;/li&gt;&lt;li&gt;&lt;span style=&quot;font-weight: 400;&quot;&gt;&lt;font style=&quot;font-size: 18px;&quot;&gt;Lorem ipsum ...&lt;/font&gt;&lt;/span&gt;&lt;br&gt;&lt;/li&gt;&lt;/ul&gt;&lt;/h1&gt;" style="text;html=1;strokeColor=default;fillColor=none;spacing=5;spacingTop=-20;whiteSpace=wrap;overflow=hidden;rounded=0;shadow=0;" parent="1" vertex="1">
          <mxGeometry x="40" y="212" width="870" height="200" as="geometry" />
        </mxCell>
        <mxCell id="livCL_kwqiCR4SOGYSZk-3" value="&lt;h1&gt;Other: requirements, objectives, etc,&lt;/h1&gt;&lt;h1&gt;&lt;ul&gt;&lt;li&gt;&lt;font style=&quot;font-size: 18px;&quot;&gt;&lt;span style=&quot;font-weight: normal;&quot;&gt;Lorem ipsum ...&lt;/span&gt;&lt;br&gt;&lt;/font&gt;&lt;/li&gt;&lt;li&gt;&lt;span style=&quot;font-weight: 400;&quot;&gt;&lt;font style=&quot;font-size: 18px;&quot;&gt;Lorem ipsum ...&lt;/font&gt;&lt;/span&gt;&lt;br&gt;&lt;/li&gt;&lt;/ul&gt;&lt;/h1&gt;" style="text;html=1;strokeColor=default;fillColor=none;spacing=5;spacingTop=-20;whiteSpace=wrap;overflow=hidden;rounded=0;" parent="1" vertex="1">
          <mxGeometry x="40" y="462" width="870" height="240" as="geometry" />
        </mxCell>
        <mxCell id="TIQuHMfYB58v5E-56duM-1" value="&lt;b&gt;&lt;font style=&quot;font-size: 24px;&quot;&gt;Meeting Notes&lt;/font&gt;&lt;/b&gt;" style="text;html=1;strokeColor=none;fillColor=none;align=left;verticalAlign=middle;whiteSpace=wrap;rounded=0;dashed=1;labelBackgroundColor=#FFFFFF;fontSize=12;fontColor=#000000;" parent="1" vertex="1">
          <mxGeometry x="40" y="132" width="350" height="30" as="geometry" />
        </mxCell>
        <mxCell id="LhIUnqyAB-YjuX6nunMf-1" value="&lt;font style=&quot;font-size: 16px;&quot;&gt;2022-12-01&lt;/font&gt;" style="text;html=1;strokeColor=none;fillColor=none;align=left;verticalAlign=middle;whiteSpace=wrap;rounded=0;dashed=1;labelBackgroundColor=#FFFFFF;fontSize=24;fontColor=#000000;" parent="1" vertex="1">
          <mxGeometry x="770" y="132" width="143" height="30" as="geometry" />
        </mxCell>
        <mxCell id="LhIUnqyAB-YjuX6nunMf-2" value="&lt;font style=&quot;font-size: 32px;&quot;&gt;AnyCompany/AWS&lt;/font&gt;" style="text;html=1;strokeColor=none;fillColor=none;align=left;verticalAlign=middle;whiteSpace=wrap;rounded=0;shadow=0;fontSize=18;fontStyle=1" parent="1" vertex="1">
          <mxGeometry x="40" y="53" width="329" height="29" as="geometry" />
        </mxCell>
      </root>
    </mxGraphModel>
  </diagram>
  <diagram name="zz Non-Func. Reqs." id="h94NcZVnJJBcJJlRhdZV">
    <mxGraphModel dx="1426" dy="857" grid="0" gridSize="10" guides="1" tooltips="1" connect="1" arrows="1" fold="1" page="1" pageScale="1" pageWidth="850" pageHeight="1100" math="0" shadow="0">
      <root>
        <mxCell id="HlYiuG5ErMYe60urcanL-0" />
        <mxCell id="HlYiuG5ErMYe60urcanL-1" parent="HlYiuG5ErMYe60urcanL-0" />
        <mxCell id="HlYiuG5ErMYe60urcanL-3" value="" style="edgeStyle=orthogonalEdgeStyle;rounded=0;orthogonalLoop=1;jettySize=auto;html=1;fontSize=18;" parent="HlYiuG5ErMYe60urcanL-1" edge="1">
          <mxGeometry relative="1" as="geometry">
            <mxPoint x="510" y="215" as="sourcePoint" />
          </mxGeometry>
        </mxCell>
        <mxCell id="HlYiuG5ErMYe60urcanL-6" value="" style="edgeStyle=orthogonalEdgeStyle;rounded=0;orthogonalLoop=1;jettySize=auto;html=1;fontSize=18;" parent="HlYiuG5ErMYe60urcanL-1" source="HlYiuG5ErMYe60urcanL-8" target="HlYiuG5ErMYe60urcanL-20" edge="1">
          <mxGeometry relative="1" as="geometry" />
        </mxCell>
        <mxCell id="HlYiuG5ErMYe60urcanL-7" value="" style="edgeStyle=orthogonalEdgeStyle;rounded=0;orthogonalLoop=1;jettySize=auto;html=1;fontSize=18;" parent="HlYiuG5ErMYe60urcanL-1" source="HlYiuG5ErMYe60urcanL-8" target="HlYiuG5ErMYe60urcanL-21" edge="1">
          <mxGeometry relative="1" as="geometry" />
        </mxCell>
        <mxCell id="HlYiuG5ErMYe60urcanL-8" value="Performance Efficiency&amp;nbsp;" style="ellipse;whiteSpace=wrap;html=1;" parent="HlYiuG5ErMYe60urcanL-1" vertex="1">
          <mxGeometry x="110" y="215" width="120" height="40" as="geometry" />
        </mxCell>
        <mxCell id="8E0tDDwB25otEQbExK8r-19" style="edgeStyle=orthogonalEdgeStyle;rounded=0;orthogonalLoop=1;jettySize=auto;html=1;" parent="HlYiuG5ErMYe60urcanL-1" source="HlYiuG5ErMYe60urcanL-10" target="8E0tDDwB25otEQbExK8r-17" edge="1">
          <mxGeometry relative="1" as="geometry" />
        </mxCell>
        <mxCell id="8E0tDDwB25otEQbExK8r-20" style="edgeStyle=orthogonalEdgeStyle;rounded=0;orthogonalLoop=1;jettySize=auto;html=1;" parent="HlYiuG5ErMYe60urcanL-1" source="HlYiuG5ErMYe60urcanL-10" target="8E0tDDwB25otEQbExK8r-18" edge="1">
          <mxGeometry relative="1" as="geometry" />
        </mxCell>
        <mxCell id="HlYiuG5ErMYe60urcanL-10" value="Reliability" style="ellipse;whiteSpace=wrap;html=1;" parent="HlYiuG5ErMYe60urcanL-1" vertex="1">
          <mxGeometry x="365" y="215" width="120" height="40" as="geometry" />
        </mxCell>
        <mxCell id="HlYiuG5ErMYe60urcanL-15" style="edgeStyle=orthogonalEdgeStyle;rounded=0;orthogonalLoop=1;jettySize=auto;html=1;entryX=0.5;entryY=1;entryDx=0;entryDy=0;fontSize=18;" parent="HlYiuG5ErMYe60urcanL-1" source="HlYiuG5ErMYe60urcanL-19" target="HlYiuG5ErMYe60urcanL-10" edge="1">
          <mxGeometry relative="1" as="geometry" />
        </mxCell>
        <mxCell id="HlYiuG5ErMYe60urcanL-17" style="edgeStyle=orthogonalEdgeStyle;rounded=0;orthogonalLoop=1;jettySize=auto;html=1;entryX=0.5;entryY=1;entryDx=0;entryDy=0;fontSize=18;" parent="HlYiuG5ErMYe60urcanL-1" source="HlYiuG5ErMYe60urcanL-19" target="HlYiuG5ErMYe60urcanL-8" edge="1">
          <mxGeometry relative="1" as="geometry">
            <Array as="points">
              <mxPoint x="170" y="340" />
            </Array>
          </mxGeometry>
        </mxCell>
        <mxCell id="HlYiuG5ErMYe60urcanL-18" value="" style="edgeStyle=orthogonalEdgeStyle;rounded=0;orthogonalLoop=1;jettySize=auto;html=1;fontSize=12;" parent="HlYiuG5ErMYe60urcanL-1" source="HlYiuG5ErMYe60urcanL-19" target="HlYiuG5ErMYe60urcanL-31" edge="1">
          <mxGeometry relative="1" as="geometry" />
        </mxCell>
        <mxCell id="8E0tDDwB25otEQbExK8r-16" style="edgeStyle=orthogonalEdgeStyle;rounded=0;orthogonalLoop=1;jettySize=auto;html=1;" parent="HlYiuG5ErMYe60urcanL-1" source="HlYiuG5ErMYe60urcanL-19" target="HlYiuG5ErMYe60urcanL-26" edge="1">
          <mxGeometry relative="1" as="geometry">
            <Array as="points">
              <mxPoint x="720" y="335" />
            </Array>
          </mxGeometry>
        </mxCell>
        <mxCell id="HlYiuG5ErMYe60urcanL-19" value="&lt;span style=&quot;font-size: 18px;&quot;&gt;PII/Sensitive&amp;nbsp;&lt;/span&gt;&lt;br style=&quot;font-size: 18px;&quot;&gt;&lt;span style=&quot;font-size: 18px;&quot;&gt;Data Scrub&lt;/span&gt;" style="rounded=1;whiteSpace=wrap;html=1;fontSize=24;fillColor=#d5e8d4;strokeColor=#82b366;" parent="HlYiuG5ErMYe60urcanL-1" vertex="1">
          <mxGeometry x="340" y="335" width="170" height="60" as="geometry" />
        </mxCell>
        <mxCell id="HlYiuG5ErMYe60urcanL-20" value="Minimize &amp;nbsp; infrastructure costs" style="ellipse;whiteSpace=wrap;html=1;" parent="HlYiuG5ErMYe60urcanL-1" vertex="1">
          <mxGeometry x="30" y="115" width="120" height="40" as="geometry" />
        </mxCell>
        <mxCell id="HlYiuG5ErMYe60urcanL-21" value="Auto-scale for data processing load" style="ellipse;whiteSpace=wrap;html=1;" parent="HlYiuG5ErMYe60urcanL-1" vertex="1">
          <mxGeometry x="160" y="115" width="120" height="40" as="geometry" />
        </mxCell>
        <mxCell id="HlYiuG5ErMYe60urcanL-24" value="" style="edgeStyle=orthogonalEdgeStyle;rounded=0;orthogonalLoop=1;jettySize=auto;html=1;fontSize=18;" parent="HlYiuG5ErMYe60urcanL-1" source="HlYiuG5ErMYe60urcanL-26" target="HlYiuG5ErMYe60urcanL-27" edge="1">
          <mxGeometry relative="1" as="geometry" />
        </mxCell>
        <mxCell id="HlYiuG5ErMYe60urcanL-25" value="" style="edgeStyle=orthogonalEdgeStyle;rounded=0;orthogonalLoop=1;jettySize=auto;html=1;fontSize=18;" parent="HlYiuG5ErMYe60urcanL-1" source="HlYiuG5ErMYe60urcanL-26" target="HlYiuG5ErMYe60urcanL-28" edge="1">
          <mxGeometry relative="1" as="geometry" />
        </mxCell>
        <mxCell id="HlYiuG5ErMYe60urcanL-26" value="Sustainability" style="ellipse;whiteSpace=wrap;html=1;" parent="HlYiuG5ErMYe60urcanL-1" vertex="1">
          <mxGeometry x="646" y="254" width="120" height="40" as="geometry" />
        </mxCell>
        <mxCell id="HlYiuG5ErMYe60urcanL-27" value="Minimize GHG impact" style="ellipse;whiteSpace=wrap;html=1;" parent="HlYiuG5ErMYe60urcanL-1" vertex="1">
          <mxGeometry x="586" y="134" width="120" height="40" as="geometry" />
        </mxCell>
        <mxCell id="HlYiuG5ErMYe60urcanL-28" value="Know GHG impact&amp;nbsp;" style="ellipse;whiteSpace=wrap;html=1;" parent="HlYiuG5ErMYe60urcanL-1" vertex="1">
          <mxGeometry x="716" y="134" width="120" height="40" as="geometry" />
        </mxCell>
        <mxCell id="HlYiuG5ErMYe60urcanL-29" value="" style="edgeStyle=orthogonalEdgeStyle;rounded=0;orthogonalLoop=1;jettySize=auto;html=1;fontSize=12;entryX=0.45;entryY=-0.025;entryDx=0;entryDy=0;entryPerimeter=0;" parent="HlYiuG5ErMYe60urcanL-1" source="HlYiuG5ErMYe60urcanL-31" target="8E0tDDwB25otEQbExK8r-0" edge="1">
          <mxGeometry relative="1" as="geometry">
            <mxPoint x="665" y="550" as="targetPoint" />
          </mxGeometry>
        </mxCell>
        <mxCell id="HlYiuG5ErMYe60urcanL-30" value="" style="edgeStyle=orthogonalEdgeStyle;rounded=0;orthogonalLoop=1;jettySize=auto;html=1;fontSize=12;exitX=0.25;exitY=1;exitDx=0;exitDy=0;" parent="HlYiuG5ErMYe60urcanL-1" source="HlYiuG5ErMYe60urcanL-19" target="HlYiuG5ErMYe60urcanL-34" edge="1">
          <mxGeometry relative="1" as="geometry" />
        </mxCell>
        <mxCell id="8E0tDDwB25otEQbExK8r-6" value="" style="edgeStyle=orthogonalEdgeStyle;rounded=0;orthogonalLoop=1;jettySize=auto;html=1;" parent="HlYiuG5ErMYe60urcanL-1" source="HlYiuG5ErMYe60urcanL-31" target="8E0tDDwB25otEQbExK8r-5" edge="1">
          <mxGeometry relative="1" as="geometry" />
        </mxCell>
        <mxCell id="HlYiuG5ErMYe60urcanL-31" value="&lt;div style=&quot;text-align: justify;&quot;&gt;&lt;span style=&quot;font-size: 12px;&quot;&gt;Security&lt;/span&gt;&lt;/div&gt;" style="ellipse;whiteSpace=wrap;html=1;fontSize=24;rounded=1;align=center;" parent="HlYiuG5ErMYe60urcanL-1" vertex="1">
          <mxGeometry x="365" y="450" width="120" height="40" as="geometry" />
        </mxCell>
        <mxCell id="8E0tDDwB25otEQbExK8r-12" style="edgeStyle=orthogonalEdgeStyle;rounded=0;orthogonalLoop=1;jettySize=auto;html=1;" parent="HlYiuG5ErMYe60urcanL-1" source="HlYiuG5ErMYe60urcanL-34" target="8E0tDDwB25otEQbExK8r-11" edge="1">
          <mxGeometry relative="1" as="geometry" />
        </mxCell>
        <mxCell id="8E0tDDwB25otEQbExK8r-14" value="" style="edgeStyle=orthogonalEdgeStyle;rounded=0;orthogonalLoop=1;jettySize=auto;html=1;" parent="HlYiuG5ErMYe60urcanL-1" source="HlYiuG5ErMYe60urcanL-34" target="8E0tDDwB25otEQbExK8r-13" edge="1">
          <mxGeometry relative="1" as="geometry" />
        </mxCell>
        <mxCell id="HlYiuG5ErMYe60urcanL-34" value="&lt;div style=&quot;text-align: justify;&quot;&gt;&lt;span style=&quot;font-size: 12px;&quot;&gt;Scalability&lt;/span&gt;&lt;/div&gt;" style="ellipse;whiteSpace=wrap;html=1;fontSize=24;rounded=1;align=center;" parent="HlYiuG5ErMYe60urcanL-1" vertex="1">
          <mxGeometry x="113" y="450" width="120" height="40" as="geometry" />
        </mxCell>
        <mxCell id="8E0tDDwB25otEQbExK8r-2" value="" style="edgeStyle=orthogonalEdgeStyle;rounded=0;orthogonalLoop=1;jettySize=auto;html=1;" parent="HlYiuG5ErMYe60urcanL-1" source="8E0tDDwB25otEQbExK8r-0" target="8E0tDDwB25otEQbExK8r-1" edge="1">
          <mxGeometry relative="1" as="geometry" />
        </mxCell>
        <mxCell id="8E0tDDwB25otEQbExK8r-4" style="edgeStyle=orthogonalEdgeStyle;rounded=0;orthogonalLoop=1;jettySize=auto;html=1;entryX=0.5;entryY=0;entryDx=0;entryDy=0;" parent="HlYiuG5ErMYe60urcanL-1" source="8E0tDDwB25otEQbExK8r-0" target="8E0tDDwB25otEQbExK8r-3" edge="1">
          <mxGeometry relative="1" as="geometry" />
        </mxCell>
        <mxCell id="8E0tDDwB25otEQbExK8r-0" value="interfaces for service I/O" style="ellipse;whiteSpace=wrap;html=1;" parent="HlYiuG5ErMYe60urcanL-1" vertex="1">
          <mxGeometry x="610" y="510" width="120" height="40" as="geometry" />
        </mxCell>
        <mxCell id="8E0tDDwB25otEQbExK8r-1" value="Access Control" style="ellipse;whiteSpace=wrap;html=1;" parent="HlYiuG5ErMYe60urcanL-1" vertex="1">
          <mxGeometry x="540" y="600" width="120" height="40" as="geometry" />
        </mxCell>
        <mxCell id="8E0tDDwB25otEQbExK8r-3" value="HTTPS" style="ellipse;whiteSpace=wrap;html=1;" parent="HlYiuG5ErMYe60urcanL-1" vertex="1">
          <mxGeometry x="700" y="600" width="120" height="40" as="geometry" />
        </mxCell>
        <mxCell id="8E0tDDwB25otEQbExK8r-8" value="" style="edgeStyle=orthogonalEdgeStyle;rounded=0;orthogonalLoop=1;jettySize=auto;html=1;" parent="HlYiuG5ErMYe60urcanL-1" source="8E0tDDwB25otEQbExK8r-5" target="8E0tDDwB25otEQbExK8r-7" edge="1">
          <mxGeometry relative="1" as="geometry" />
        </mxCell>
        <mxCell id="8E0tDDwB25otEQbExK8r-10" value="" style="edgeStyle=orthogonalEdgeStyle;rounded=0;orthogonalLoop=1;jettySize=auto;html=1;" parent="HlYiuG5ErMYe60urcanL-1" source="8E0tDDwB25otEQbExK8r-5" target="8E0tDDwB25otEQbExK8r-9" edge="1">
          <mxGeometry relative="1" as="geometry" />
        </mxCell>
        <mxCell id="8E0tDDwB25otEQbExK8r-5" value="&lt;div style=&quot;text-align: justify;&quot;&gt;&lt;span style=&quot;font-size: 12px;&quot;&gt;Data at Rest&lt;/span&gt;&lt;/div&gt;" style="ellipse;whiteSpace=wrap;html=1;fontSize=24;rounded=1;align=center;" parent="HlYiuG5ErMYe60urcanL-1" vertex="1">
          <mxGeometry x="365" y="530" width="120" height="40" as="geometry" />
        </mxCell>
        <mxCell id="8E0tDDwB25otEQbExK8r-7" value="&lt;div style=&quot;text-align: justify;&quot;&gt;&lt;span style=&quot;font-size: 12px;&quot;&gt;Encrypted&lt;/span&gt;&lt;/div&gt;" style="ellipse;whiteSpace=wrap;html=1;fontSize=24;rounded=1;align=center;" parent="HlYiuG5ErMYe60urcanL-1" vertex="1">
          <mxGeometry x="365" y="610" width="120" height="40" as="geometry" />
        </mxCell>
        <mxCell id="8E0tDDwB25otEQbExK8r-9" value="&lt;div style=&quot;text-align: justify;&quot;&gt;&lt;span style=&quot;font-size: 12px;&quot;&gt;Access Contol&lt;/span&gt;&lt;/div&gt;" style="ellipse;whiteSpace=wrap;html=1;fontSize=24;rounded=1;align=center;" parent="HlYiuG5ErMYe60urcanL-1" vertex="1">
          <mxGeometry x="230" y="610" width="120" height="40" as="geometry" />
        </mxCell>
        <mxCell id="8E0tDDwB25otEQbExK8r-11" value="&lt;div style=&quot;text-align: justify;&quot;&gt;&lt;span style=&quot;font-size: 12px;&quot;&gt;Data at Rest (TB)&lt;/span&gt;&lt;/div&gt;" style="ellipse;whiteSpace=wrap;html=1;fontSize=24;rounded=1;align=center;" parent="HlYiuG5ErMYe60urcanL-1" vertex="1">
          <mxGeometry x="10" y="530" width="120" height="40" as="geometry" />
        </mxCell>
        <mxCell id="8E0tDDwB25otEQbExK8r-13" value="&lt;div style=&quot;text-align: justify;&quot;&gt;&lt;span style=&quot;font-size: 12px;&quot;&gt;Daily Load (GB)&lt;/span&gt;&lt;/div&gt;" style="ellipse;whiteSpace=wrap;html=1;fontSize=24;rounded=1;align=center;" parent="HlYiuG5ErMYe60urcanL-1" vertex="1">
          <mxGeometry x="150" y="530" width="120" height="40" as="geometry" />
        </mxCell>
        <mxCell id="8E0tDDwB25otEQbExK8r-17" value="Service Availability" style="ellipse;whiteSpace=wrap;html=1;" parent="HlYiuG5ErMYe60urcanL-1" vertex="1">
          <mxGeometry x="295" y="135" width="120" height="40" as="geometry" />
        </mxCell>
        <mxCell id="8E0tDDwB25otEQbExK8r-18" value="PII Detection &amp;amp; Replacement" style="ellipse;whiteSpace=wrap;html=1;" parent="HlYiuG5ErMYe60urcanL-1" vertex="1">
          <mxGeometry x="450" y="135" width="120" height="40" as="geometry" />
        </mxCell>
        <mxCell id="NDDdZMIxpwJZDlqLzk2c-0" value="&lt;font style=&quot;font-size: 24px;&quot;&gt;&lt;u&gt;Non-Functional Requirements: PII/Sensitive Data Scrub&lt;/u&gt;&lt;/font&gt;" style="text;html=1;strokeColor=none;fillColor=none;align=center;verticalAlign=middle;whiteSpace=wrap;rounded=0;fontSize=16;" parent="HlYiuG5ErMYe60urcanL-1" vertex="1">
          <mxGeometry x="125" y="20" width="600" height="30" as="geometry" />
        </mxCell>
      </root>
    </mxGraphModel>
  </diagram>
</mxfile>
